M48
; DRILL file {KiCad (5.1.4)-1} date 26/11/2019 12:04:02
; FORMAT={-:-/ absolute / inch / decimal}
; #@! TF.CreationDate,2019-11-26T12:04:02-03:00
; #@! TF.GenerationSoftware,Kicad,Pcbnew,(5.1.4)-1
; #@! TF.FileFunction,Plated,1,2,PTH
FMAT,2
INCH
T1C0.0157
T2C0.0197
T3C0.0276
T4C0.0295
T5C0.0315
T6C0.0354
T7C0.0394
T8C0.0394
T9C0.0400
T10C0.0433
T11C0.0472
T12C0.0591
%
G90
G05
T1
X4.1811Y-5.4252
X4.3031Y-2.7008
X4.3307Y-3.9961
X4.4685Y-4.4094
X4.56Y-3.03
X4.6063Y-4.4685
X4.6457Y-5.2559
X4.6575Y-2.8701
X4.6594Y-2.9331
X4.6594Y-3.0394
X4.7185Y-3.1024
X4.7244Y-5.5315
X4.8Y-4.18
X4.8031Y-3.189
X4.8031Y-3.2913
X4.8031Y-5.748
X4.874Y-3.2913
X4.8898Y-3.2303
X4.9154Y-5.7461
X4.9449Y-4.4724
X4.9449Y-4.7165
X4.9606Y-5.1969
X5.2677Y-3.2913
X5.2992Y-3.3307
X5.4331Y-5.3543
X5.5433Y-5.3071
X5.5827Y-5.1969
X5.5846Y-2.8622
X5.6457Y-2.4606
X5.7874Y-5.2205
X5.8386Y-2.4035
X5.8661Y-3.378
X5.9291Y-3.3701
X5.937Y-3.0079
X6.13Y-2.99
X6.2913Y-4.8031
X6.3465Y-3.3307
X6.3465Y-3.7402
X6.3701Y-4.2362
X6.3701Y-4.8976
X6.4094Y-4.1378
X6.4173Y-4.7008
X6.42Y-4.61
X6.4409Y-3.937
X6.46Y-3.14
X6.46Y-3.4
X6.5354Y-4.3307
X6.6929Y-5.1008
X6.7283Y-4.9953
X6.7638Y-4.9008
X6.7992Y-4.7953
X6.8346Y-4.7008
X6.8701Y-4.5953
X6.9055Y-4.5008
X6.9409Y-4.3953
X6.9744Y-4.04
X7.0276Y-4.3307
X7.08Y-3.14
X7.1654Y-2.9173
X7.2165Y-2.8268
X7.2654Y-2.963
X7.3Y-3.61
X7.315Y-2.7795
X7.41Y-3.61
X7.4173Y-2.7323
X7.4654Y-3.015
X7.4724Y-5.9685
X7.5654Y-2.6827
X7.5654Y-3.0764
X7.63Y-4.16
T2
X5.3445Y-3.0996
X5.3445Y-3.1996
T3
X3.9173Y-4.5276
X4.1173Y-4.5276
X5.8465Y-2.6
X5.8465Y-2.8
X7.0047Y-4.1437
X7.2047Y-4.1437
X6.9134Y-3.3465
X6.9134Y-3.5465
X7.1654Y-3.3465
X7.1654Y-3.5465
X7.0079Y-4.5953
X7.2079Y-4.5953
X5.2953Y-5.5315
X5.2953Y-5.7315
X7.0079Y-4.6953
X7.2079Y-4.6953
X6.122Y-5.5709
X6.122Y-5.7709
X5.75Y-2.6
X5.75Y-2.8
X7.0079Y-5.0953
X7.2079Y-5.0953
X5.475Y-5.575
X5.475Y-5.775
X3.9142Y-4.626
X4.1142Y-4.626
X7.0118Y-3.3465
X7.0118Y-3.5465
X6.6929Y-3.3465
X6.6929Y-3.5465
X4.9969Y-2.2244
X5.1969Y-2.2244
X7.0079Y-4.9953
X7.2079Y-4.9953
X7.0047Y-4.2421
X7.2047Y-4.2421
X7.0079Y-4.4953
X7.2079Y-4.4953
X6.7913Y-3.3465
X6.7913Y-3.5465
X7.0079Y-4.3953
X7.2079Y-4.3953
X7.4606Y-3.3465
X7.4606Y-3.5465
X4.7409Y-2.5
X4.9409Y-2.5
X7.0079Y-4.7953
X7.2079Y-4.7953
X7.0079Y-5.2953
X7.2079Y-5.2953
X7.5591Y-3.3465
X7.5591Y-3.5465
X7.0079Y-4.8953
X7.2079Y-4.8953
X5.65Y-2.6
X5.65Y-2.8
X7.0079Y-5.3937
X7.2079Y-5.3937
X7.2638Y-3.3465
X7.2638Y-3.5465
T4
X7.2047Y-3.8583
X7.2047Y-3.9083
X7.2047Y-3.9583
X7.0079Y-3.8583
X7.0079Y-3.9083
X7.0079Y-3.9583
X5.3071Y-2.2441
X5.3071Y-2.2941
X5.3071Y-2.3441
X5.0984Y-5.5709
X5.0984Y-5.6209
X5.0984Y-5.6709
T5
X7.1654Y-2.5693
X7.1654Y-3.1693
X7.2654Y-2.5693
X7.2654Y-3.1693
X7.3654Y-2.5693
X7.3654Y-3.1693
X7.4654Y-2.5693
X7.4654Y-3.1693
X7.5654Y-2.5693
X7.5654Y-3.1693
X4.7441Y-2.6181
X4.9409Y-2.6181
X4.8622Y-5.5661
X4.8622Y-5.8661
X6.6142Y-2.5693
X6.6142Y-3.1693
X6.7142Y-2.5693
X6.7142Y-3.1693
X6.8142Y-2.5693
X6.8142Y-3.1693
X6.9142Y-2.5693
X6.9142Y-3.1693
X7.0142Y-2.5693
X7.0142Y-3.1693
X7.0079Y-5.1969
X7.2047Y-5.1969
X7.3803Y-2.3047
X7.4803Y-2.2047
X7.4803Y-2.4047
X4.1732Y-3.1268
X4.1732Y-3.3268
X4.2732Y-3.2268
X5.1378Y-2.55
X5.1378Y-2.85
X5.2378Y-2.55
X5.2378Y-2.85
X5.3378Y-2.55
X5.3378Y-2.85
X5.4378Y-2.55
X5.4378Y-2.85
X4.685Y-3.7008
X4.685Y-3.8008
X4.685Y-3.9008
X4.685Y-4.0008
X4.685Y-4.1008
X4.685Y-4.2008
X4.685Y-4.3008
X4.685Y-4.4008
X4.685Y-4.6008
X4.685Y-4.7008
X4.685Y-4.8008
X4.685Y-4.9008
X4.685Y-5.0008
X4.685Y-5.1008
X6.585Y-3.3409
X6.585Y-3.4409
X6.585Y-3.5409
X6.585Y-3.6409
X6.585Y-3.7409
X6.585Y-3.8409
X6.585Y-3.9409
X6.585Y-4.0409
X6.585Y-4.1409
X6.585Y-4.2409
X6.585Y-4.4008
X6.585Y-4.5008
X6.585Y-4.6008
X6.585Y-4.7008
X6.585Y-4.8008
X6.585Y-4.9008
X6.585Y-5.0008
X6.585Y-5.1008
X4.2913Y-5.2559
X4.3898Y-5.2559
X6.078Y-2.5197
X6.078Y-2.8197
X6.178Y-2.5197
X6.178Y-2.8197
X6.278Y-2.5197
X6.278Y-2.8197
X6.378Y-2.5197
X6.378Y-2.8197
X4.1732Y-3.422
X4.1732Y-3.622
X4.2732Y-3.522
T6
X7.46Y-4.6187
X7.56Y-4.6187
X7.46Y-4.0187
X7.56Y-4.0187
X7.1466Y-5.6299
X7.1466Y-5.7283
X7.1466Y-5.8268
X7.46Y-5.4187
X7.56Y-5.4187
X7.46Y-4.8187
X7.56Y-4.8187
X6.871Y-5.6299
X6.871Y-5.7283
X6.871Y-5.8268
X7.46Y-5.2187
X7.56Y-5.2187
X7.46Y-4.2187
X7.56Y-4.2187
X7.46Y-5.0187
X7.56Y-5.0187
X7.46Y-4.4187
X7.56Y-4.4187
T7
X4.6496Y-5.689
X4.6496Y-5.789
X4.6496Y-5.889
X3.8583Y-4.0157
X3.8583Y-4.1157
X3.8583Y-4.2157
X7.3819Y-3.8189
X7.4819Y-3.8189
X7.5819Y-3.8189
X4.0157Y-4.0157
X4.0157Y-4.1157
X4.0157Y-4.2157
X3.937Y-5.3937
X3.937Y-5.4937
X3.937Y-5.5937
X3.937Y-5.6937
X3.937Y-5.7937
X3.937Y-5.8937
X5.937Y-5.2598
X6.037Y-5.2598
X6.137Y-5.2598
X4.7047Y-2.7559
X4.8047Y-2.7559
X4.9047Y-2.7559
X5.5Y-2.3
X5.6Y-2.3
X5.7Y-2.3
X5.8Y-2.3
X5.9Y-2.3
X6.0Y-2.3
X6.1Y-2.3
X6.2Y-2.3
X6.3Y-2.3
X6.4Y-2.3
X6.5Y-2.3
X6.6Y-2.3
X6.7Y-2.3
X6.8Y-2.3
X6.9Y-2.3
X7.0Y-2.3
X6.0236Y-3.189
X6.1236Y-3.189
X6.2236Y-3.189
X4.9378Y-3.1693
X5.0378Y-3.1693
X5.1378Y-3.1693
X3.798Y-2.5394
X3.898Y-2.5394
X3.998Y-2.5394
X4.098Y-2.5394
X4.198Y-2.5394
X4.298Y-2.5394
X4.398Y-2.5394
X4.498Y-2.5394
X6.3173Y-2.9528
X6.4173Y-2.9528
T8
X3.809Y-3.2677
X3.809Y-3.3661
X3.809Y-3.4645
X4.0945Y-2.9822
X4.1929Y-2.9822
X4.2913Y-2.9822
X4.5177Y-3.2381
X4.5177Y-3.4941
X4.6909Y-3.2381
X4.6909Y-3.4941
T9
X3.9551Y-4.8181
X3.9551Y-4.9181
X3.9551Y-5.0181
X3.9551Y-5.1181
X4.0551Y-4.8181
X4.0551Y-4.9181
X4.0551Y-5.0181
X4.0551Y-5.1181
T10
X4.1929Y-3.9961
X4.1929Y-4.1732
X4.4488Y-3.9961
X4.4488Y-4.1732
X4.2323Y-4.6654
X4.2323Y-4.9213
X4.4094Y-4.6654
X4.4094Y-4.9213
T11
X6.3386Y-5.4331
X6.3386Y-5.9252
X6.5354Y-5.4331
X6.5354Y-5.9252
X5.7Y-5.4331
X5.7Y-5.9252
X5.8969Y-5.4331
X5.8969Y-5.9252
T12
X3.9311Y-3.061
X3.9311Y-3.6712
X4.4547Y-3.061
X4.4547Y-3.6712
T0
M30
