G04 #@! TF.GenerationSoftware,KiCad,Pcbnew,(5.1.4)-1*
G04 #@! TF.CreationDate,2019-11-26T12:04:00-03:00*
G04 #@! TF.ProjectId,Shield STM8 - N_cleo,53686965-6c64-4205-9354-4d38202d204e,rev?*
G04 #@! TF.SameCoordinates,Original*
G04 #@! TF.FileFunction,Legend,Bot*
G04 #@! TF.FilePolarity,Positive*
%FSLAX46Y46*%
G04 Gerber Fmt 4.6, Leading zero omitted, Abs format (unit mm)*
G04 Created by KiCad (PCBNEW (5.1.4)-1) date 2019-11-26 12:04:00*
%MOMM*%
%LPD*%
G04 APERTURE LIST*
%ADD10C,0.100000*%
%ADD11C,0.150000*%
%ADD12C,0.300000*%
%ADD13C,0.400000*%
%ADD14C,0.010000*%
%ADD15C,0.120000*%
G04 APERTURE END LIST*
D10*
D11*
X177002200Y-166007200D02*
X177002200Y-198007200D01*
X285002200Y-198007200D01*
X285002200Y-166007200D01*
X177002200Y-166007200D01*
D10*
D11*
X10000000Y-10000000D02*
X10000000Y-200007200D01*
X287002200Y-200007200D01*
X287002200Y-10000000D01*
X10000000Y-10000000D01*
D10*
D11*
X12000000Y-12000000D02*
X12000000Y-198007200D01*
X285002200Y-198007200D01*
X285002200Y-12000000D01*
X12000000Y-12000000D01*
D10*
D11*
X60000000Y-12000000D02*
X60000000Y-10000000D01*
D10*
D11*
X110000000Y-12000000D02*
X110000000Y-10000000D01*
D10*
D11*
X160000000Y-12000000D02*
X160000000Y-10000000D01*
D10*
D11*
X210000000Y-12000000D02*
X210000000Y-10000000D01*
D10*
D11*
X260000000Y-12000000D02*
X260000000Y-10000000D01*
D10*
D11*
X36065476Y-11588095D02*
X35322619Y-11588095D01*
X35694047Y-11588095D02*
X35694047Y-10288095D01*
X35570238Y-10473809D01*
X35446428Y-10597619D01*
X35322619Y-10659523D01*
D10*
D11*
X85322619Y-10411904D02*
X85384523Y-10350000D01*
X85508333Y-10288095D01*
X85817857Y-10288095D01*
X85941666Y-10350000D01*
X86003571Y-10411904D01*
X86065476Y-10535714D01*
X86065476Y-10659523D01*
X86003571Y-10845238D01*
X85260714Y-11588095D01*
X86065476Y-11588095D01*
D10*
D11*
X135260714Y-10288095D02*
X136065476Y-10288095D01*
X135632142Y-10783333D01*
X135817857Y-10783333D01*
X135941666Y-10845238D01*
X136003571Y-10907142D01*
X136065476Y-11030952D01*
X136065476Y-11340476D01*
X136003571Y-11464285D01*
X135941666Y-11526190D01*
X135817857Y-11588095D01*
X135446428Y-11588095D01*
X135322619Y-11526190D01*
X135260714Y-11464285D01*
D10*
D11*
X185941666Y-10721428D02*
X185941666Y-11588095D01*
X185632142Y-10226190D02*
X185322619Y-11154761D01*
X186127380Y-11154761D01*
D10*
D11*
X236003571Y-10288095D02*
X235384523Y-10288095D01*
X235322619Y-10907142D01*
X235384523Y-10845238D01*
X235508333Y-10783333D01*
X235817857Y-10783333D01*
X235941666Y-10845238D01*
X236003571Y-10907142D01*
X236065476Y-11030952D01*
X236065476Y-11340476D01*
X236003571Y-11464285D01*
X235941666Y-11526190D01*
X235817857Y-11588095D01*
X235508333Y-11588095D01*
X235384523Y-11526190D01*
X235322619Y-11464285D01*
D10*
D11*
X285941666Y-10288095D02*
X285694047Y-10288095D01*
X285570238Y-10350000D01*
X285508333Y-10411904D01*
X285384523Y-10597619D01*
X285322619Y-10845238D01*
X285322619Y-11340476D01*
X285384523Y-11464285D01*
X285446428Y-11526190D01*
X285570238Y-11588095D01*
X285817857Y-11588095D01*
X285941666Y-11526190D01*
X286003571Y-11464285D01*
X286065476Y-11340476D01*
X286065476Y-11030952D01*
X286003571Y-10907142D01*
X285941666Y-10845238D01*
X285817857Y-10783333D01*
X285570238Y-10783333D01*
X285446428Y-10845238D01*
X285384523Y-10907142D01*
X285322619Y-11030952D01*
D10*
D11*
X60000000Y-198007200D02*
X60000000Y-200007200D01*
D10*
D11*
X110000000Y-198007200D02*
X110000000Y-200007200D01*
D10*
D11*
X160000000Y-198007200D02*
X160000000Y-200007200D01*
D10*
D11*
X210000000Y-198007200D02*
X210000000Y-200007200D01*
D10*
D11*
X260000000Y-198007200D02*
X260000000Y-200007200D01*
D10*
D11*
X36065476Y-199595295D02*
X35322619Y-199595295D01*
X35694047Y-199595295D02*
X35694047Y-198295295D01*
X35570238Y-198481009D01*
X35446428Y-198604819D01*
X35322619Y-198666723D01*
D10*
D11*
X85322619Y-198419104D02*
X85384523Y-198357200D01*
X85508333Y-198295295D01*
X85817857Y-198295295D01*
X85941666Y-198357200D01*
X86003571Y-198419104D01*
X86065476Y-198542914D01*
X86065476Y-198666723D01*
X86003571Y-198852438D01*
X85260714Y-199595295D01*
X86065476Y-199595295D01*
D10*
D11*
X135260714Y-198295295D02*
X136065476Y-198295295D01*
X135632142Y-198790533D01*
X135817857Y-198790533D01*
X135941666Y-198852438D01*
X136003571Y-198914342D01*
X136065476Y-199038152D01*
X136065476Y-199347676D01*
X136003571Y-199471485D01*
X135941666Y-199533390D01*
X135817857Y-199595295D01*
X135446428Y-199595295D01*
X135322619Y-199533390D01*
X135260714Y-199471485D01*
D10*
D11*
X185941666Y-198728628D02*
X185941666Y-199595295D01*
X185632142Y-198233390D02*
X185322619Y-199161961D01*
X186127380Y-199161961D01*
D10*
D11*
X236003571Y-198295295D02*
X235384523Y-198295295D01*
X235322619Y-198914342D01*
X235384523Y-198852438D01*
X235508333Y-198790533D01*
X235817857Y-198790533D01*
X235941666Y-198852438D01*
X236003571Y-198914342D01*
X236065476Y-199038152D01*
X236065476Y-199347676D01*
X236003571Y-199471485D01*
X235941666Y-199533390D01*
X235817857Y-199595295D01*
X235508333Y-199595295D01*
X235384523Y-199533390D01*
X235322619Y-199471485D01*
D10*
D11*
X285941666Y-198295295D02*
X285694047Y-198295295D01*
X285570238Y-198357200D01*
X285508333Y-198419104D01*
X285384523Y-198604819D01*
X285322619Y-198852438D01*
X285322619Y-199347676D01*
X285384523Y-199471485D01*
X285446428Y-199533390D01*
X285570238Y-199595295D01*
X285817857Y-199595295D01*
X285941666Y-199533390D01*
X286003571Y-199471485D01*
X286065476Y-199347676D01*
X286065476Y-199038152D01*
X286003571Y-198914342D01*
X285941666Y-198852438D01*
X285817857Y-198790533D01*
X285570238Y-198790533D01*
X285446428Y-198852438D01*
X285384523Y-198914342D01*
X285322619Y-199038152D01*
D10*
D11*
X10000000Y-60000000D02*
X12000000Y-60000000D01*
D10*
D11*
X10000000Y-110000000D02*
X12000000Y-110000000D01*
D10*
D11*
X10000000Y-160000000D02*
X12000000Y-160000000D01*
D10*
D11*
X10690476Y-35216666D02*
X11309523Y-35216666D01*
X10566666Y-35588095D02*
X11000000Y-34288095D01*
X11433333Y-35588095D01*
D10*
D11*
X11092857Y-84907142D02*
X11278571Y-84969047D01*
X11340476Y-85030952D01*
X11402380Y-85154761D01*
X11402380Y-85340476D01*
X11340476Y-85464285D01*
X11278571Y-85526190D01*
X11154761Y-85588095D01*
X10659523Y-85588095D01*
X10659523Y-84288095D01*
X11092857Y-84288095D01*
X11216666Y-84350000D01*
X11278571Y-84411904D01*
X11340476Y-84535714D01*
X11340476Y-84659523D01*
X11278571Y-84783333D01*
X11216666Y-84845238D01*
X11092857Y-84907142D01*
X10659523Y-84907142D01*
D10*
D11*
X11402380Y-135464285D02*
X11340476Y-135526190D01*
X11154761Y-135588095D01*
X11030952Y-135588095D01*
X10845238Y-135526190D01*
X10721428Y-135402380D01*
X10659523Y-135278571D01*
X10597619Y-135030952D01*
X10597619Y-134845238D01*
X10659523Y-134597619D01*
X10721428Y-134473809D01*
X10845238Y-134350000D01*
X11030952Y-134288095D01*
X11154761Y-134288095D01*
X11340476Y-134350000D01*
X11402380Y-134411904D01*
D10*
D11*
X10659523Y-185588095D02*
X10659523Y-184288095D01*
X10969047Y-184288095D01*
X11154761Y-184350000D01*
X11278571Y-184473809D01*
X11340476Y-184597619D01*
X11402380Y-184845238D01*
X11402380Y-185030952D01*
X11340476Y-185278571D01*
X11278571Y-185402380D01*
X11154761Y-185526190D01*
X10969047Y-185588095D01*
X10659523Y-185588095D01*
D10*
D11*
X287002200Y-60000000D02*
X285002200Y-60000000D01*
D10*
D11*
X287002200Y-110000000D02*
X285002200Y-110000000D01*
D10*
D11*
X287002200Y-160000000D02*
X285002200Y-160000000D01*
D10*
D11*
X285692676Y-35216666D02*
X286311723Y-35216666D01*
X285568866Y-35588095D02*
X286002200Y-34288095D01*
X286435533Y-35588095D01*
D10*
D11*
X286095057Y-84907142D02*
X286280771Y-84969047D01*
X286342676Y-85030952D01*
X286404580Y-85154761D01*
X286404580Y-85340476D01*
X286342676Y-85464285D01*
X286280771Y-85526190D01*
X286156961Y-85588095D01*
X285661723Y-85588095D01*
X285661723Y-84288095D01*
X286095057Y-84288095D01*
X286218866Y-84350000D01*
X286280771Y-84411904D01*
X286342676Y-84535714D01*
X286342676Y-84659523D01*
X286280771Y-84783333D01*
X286218866Y-84845238D01*
X286095057Y-84907142D01*
X285661723Y-84907142D01*
D10*
D11*
X286404580Y-135464285D02*
X286342676Y-135526190D01*
X286156961Y-135588095D01*
X286033152Y-135588095D01*
X285847438Y-135526190D01*
X285723628Y-135402380D01*
X285661723Y-135278571D01*
X285599819Y-135030952D01*
X285599819Y-134845238D01*
X285661723Y-134597619D01*
X285723628Y-134473809D01*
X285847438Y-134350000D01*
X286033152Y-134288095D01*
X286156961Y-134288095D01*
X286342676Y-134350000D01*
X286404580Y-134411904D01*
D10*
D11*
X285661723Y-185588095D02*
X285661723Y-184288095D01*
X285971247Y-184288095D01*
X286156961Y-184350000D01*
X286280771Y-184473809D01*
X286342676Y-184597619D01*
X286404580Y-184845238D01*
X286404580Y-185030952D01*
X286342676Y-185278571D01*
X286280771Y-185402380D01*
X286156961Y-185526190D01*
X285971247Y-185588095D01*
X285661723Y-185588095D01*
D10*
D11*
X200434342Y-193785771D02*
X200434342Y-192285771D01*
X200791485Y-192285771D01*
X201005771Y-192357200D01*
X201148628Y-192500057D01*
X201220057Y-192642914D01*
X201291485Y-192928628D01*
X201291485Y-193142914D01*
X201220057Y-193428628D01*
X201148628Y-193571485D01*
X201005771Y-193714342D01*
X200791485Y-193785771D01*
X200434342Y-193785771D01*
X202577200Y-193785771D02*
X202577200Y-193000057D01*
X202505771Y-192857200D01*
X202362914Y-192785771D01*
X202077200Y-192785771D01*
X201934342Y-192857200D01*
X202577200Y-193714342D02*
X202434342Y-193785771D01*
X202077200Y-193785771D01*
X201934342Y-193714342D01*
X201862914Y-193571485D01*
X201862914Y-193428628D01*
X201934342Y-193285771D01*
X202077200Y-193214342D01*
X202434342Y-193214342D01*
X202577200Y-193142914D01*
X203077200Y-192785771D02*
X203648628Y-192785771D01*
X203291485Y-192285771D02*
X203291485Y-193571485D01*
X203362914Y-193714342D01*
X203505771Y-193785771D01*
X203648628Y-193785771D01*
X204720057Y-193714342D02*
X204577200Y-193785771D01*
X204291485Y-193785771D01*
X204148628Y-193714342D01*
X204077200Y-193571485D01*
X204077200Y-193000057D01*
X204148628Y-192857200D01*
X204291485Y-192785771D01*
X204577200Y-192785771D01*
X204720057Y-192857200D01*
X204791485Y-193000057D01*
X204791485Y-193142914D01*
X204077200Y-193285771D01*
X205434342Y-193642914D02*
X205505771Y-193714342D01*
X205434342Y-193785771D01*
X205362914Y-193714342D01*
X205434342Y-193642914D01*
X205434342Y-193785771D01*
X205434342Y-192857200D02*
X205505771Y-192928628D01*
X205434342Y-193000057D01*
X205362914Y-192928628D01*
X205434342Y-192857200D01*
X205434342Y-193000057D01*
D10*
D11*
X177002200Y-194507200D02*
X285002200Y-194507200D01*
D10*
D11*
X178434342Y-196585771D02*
X178434342Y-195085771D01*
X179291485Y-196585771D02*
X178648628Y-195728628D01*
X179291485Y-195085771D02*
X178434342Y-195942914D01*
X179934342Y-196585771D02*
X179934342Y-195585771D01*
X179934342Y-195085771D02*
X179862914Y-195157200D01*
X179934342Y-195228628D01*
X180005771Y-195157200D01*
X179934342Y-195085771D01*
X179934342Y-195228628D01*
X181505771Y-196442914D02*
X181434342Y-196514342D01*
X181220057Y-196585771D01*
X181077200Y-196585771D01*
X180862914Y-196514342D01*
X180720057Y-196371485D01*
X180648628Y-196228628D01*
X180577200Y-195942914D01*
X180577200Y-195728628D01*
X180648628Y-195442914D01*
X180720057Y-195300057D01*
X180862914Y-195157200D01*
X181077200Y-195085771D01*
X181220057Y-195085771D01*
X181434342Y-195157200D01*
X181505771Y-195228628D01*
X182791485Y-196585771D02*
X182791485Y-195800057D01*
X182720057Y-195657200D01*
X182577200Y-195585771D01*
X182291485Y-195585771D01*
X182148628Y-195657200D01*
X182791485Y-196514342D02*
X182648628Y-196585771D01*
X182291485Y-196585771D01*
X182148628Y-196514342D01*
X182077200Y-196371485D01*
X182077200Y-196228628D01*
X182148628Y-196085771D01*
X182291485Y-196014342D01*
X182648628Y-196014342D01*
X182791485Y-195942914D01*
X184148628Y-196585771D02*
X184148628Y-195085771D01*
X184148628Y-196514342D02*
X184005771Y-196585771D01*
X183720057Y-196585771D01*
X183577200Y-196514342D01*
X183505771Y-196442914D01*
X183434342Y-196300057D01*
X183434342Y-195871485D01*
X183505771Y-195728628D01*
X183577200Y-195657200D01*
X183720057Y-195585771D01*
X184005771Y-195585771D01*
X184148628Y-195657200D01*
X186005771Y-195800057D02*
X186505771Y-195800057D01*
X186720057Y-196585771D02*
X186005771Y-196585771D01*
X186005771Y-195085771D01*
X186720057Y-195085771D01*
X187362914Y-196442914D02*
X187434342Y-196514342D01*
X187362914Y-196585771D01*
X187291485Y-196514342D01*
X187362914Y-196442914D01*
X187362914Y-196585771D01*
X188077200Y-196585771D02*
X188077200Y-195085771D01*
X188434342Y-195085771D01*
X188648628Y-195157200D01*
X188791485Y-195300057D01*
X188862914Y-195442914D01*
X188934342Y-195728628D01*
X188934342Y-195942914D01*
X188862914Y-196228628D01*
X188791485Y-196371485D01*
X188648628Y-196514342D01*
X188434342Y-196585771D01*
X188077200Y-196585771D01*
X189577200Y-196442914D02*
X189648628Y-196514342D01*
X189577200Y-196585771D01*
X189505771Y-196514342D01*
X189577200Y-196442914D01*
X189577200Y-196585771D01*
X190220057Y-196157200D02*
X190934342Y-196157200D01*
X190077200Y-196585771D02*
X190577200Y-195085771D01*
X191077200Y-196585771D01*
X191577200Y-196442914D02*
X191648628Y-196514342D01*
X191577200Y-196585771D01*
X191505771Y-196514342D01*
X191577200Y-196442914D01*
X191577200Y-196585771D01*
X194577200Y-195585771D02*
X194577200Y-197085771D01*
X194577200Y-195657200D02*
X194720057Y-195585771D01*
X195005771Y-195585771D01*
X195148628Y-195657200D01*
X195220057Y-195728628D01*
X195291485Y-195871485D01*
X195291485Y-196300057D01*
X195220057Y-196442914D01*
X195148628Y-196514342D01*
X195005771Y-196585771D01*
X194720057Y-196585771D01*
X194577200Y-196514342D01*
X196577200Y-196514342D02*
X196434342Y-196585771D01*
X196148628Y-196585771D01*
X196005771Y-196514342D01*
X195934342Y-196442914D01*
X195862914Y-196300057D01*
X195862914Y-195871485D01*
X195934342Y-195728628D01*
X196005771Y-195657200D01*
X196148628Y-195585771D01*
X196434342Y-195585771D01*
X196577200Y-195657200D01*
X197220057Y-196585771D02*
X197220057Y-195085771D01*
X197220057Y-195657200D02*
X197362914Y-195585771D01*
X197648628Y-195585771D01*
X197791485Y-195657200D01*
X197862914Y-195728628D01*
X197934342Y-195871485D01*
X197934342Y-196300057D01*
X197862914Y-196442914D01*
X197791485Y-196514342D01*
X197648628Y-196585771D01*
X197362914Y-196585771D01*
X197220057Y-196514342D01*
X198577200Y-195585771D02*
X198577200Y-196585771D01*
X198577200Y-195728628D02*
X198648628Y-195657200D01*
X198791485Y-195585771D01*
X199005771Y-195585771D01*
X199148628Y-195657200D01*
X199220057Y-195800057D01*
X199220057Y-196585771D01*
X200505771Y-196514342D02*
X200362914Y-196585771D01*
X200077200Y-196585771D01*
X199934342Y-196514342D01*
X199862914Y-196371485D01*
X199862914Y-195800057D01*
X199934342Y-195657200D01*
X200077200Y-195585771D01*
X200362914Y-195585771D01*
X200505771Y-195657200D01*
X200577200Y-195800057D01*
X200577200Y-195942914D01*
X199862914Y-196085771D01*
X201077200Y-195585771D02*
X201362914Y-196585771D01*
X201648628Y-195871485D01*
X201934342Y-196585771D01*
X202220057Y-195585771D01*
X204362914Y-197157200D02*
X204291485Y-197085771D01*
X204148628Y-196871485D01*
X204077200Y-196728628D01*
X204005771Y-196514342D01*
X203934342Y-196157200D01*
X203934342Y-195871485D01*
X204005771Y-195514342D01*
X204077200Y-195300057D01*
X204148628Y-195157200D01*
X204291485Y-194942914D01*
X204362914Y-194871485D01*
X205648628Y-195085771D02*
X204934342Y-195085771D01*
X204862914Y-195800057D01*
X204934342Y-195728628D01*
X205077200Y-195657200D01*
X205434342Y-195657200D01*
X205577200Y-195728628D01*
X205648628Y-195800057D01*
X205720057Y-195942914D01*
X205720057Y-196300057D01*
X205648628Y-196442914D01*
X205577200Y-196514342D01*
X205434342Y-196585771D01*
X205077200Y-196585771D01*
X204934342Y-196514342D01*
X204862914Y-196442914D01*
X206362914Y-196442914D02*
X206434342Y-196514342D01*
X206362914Y-196585771D01*
X206291485Y-196514342D01*
X206362914Y-196442914D01*
X206362914Y-196585771D01*
X207862914Y-196585771D02*
X207005771Y-196585771D01*
X207434342Y-196585771D02*
X207434342Y-195085771D01*
X207291485Y-195300057D01*
X207148628Y-195442914D01*
X207005771Y-195514342D01*
X208505771Y-196442914D02*
X208577200Y-196514342D01*
X208505771Y-196585771D01*
X208434342Y-196514342D01*
X208505771Y-196442914D01*
X208505771Y-196585771D01*
X209862914Y-195585771D02*
X209862914Y-196585771D01*
X209505771Y-195014342D02*
X209148628Y-196085771D01*
X210077200Y-196085771D01*
X210505771Y-197157200D02*
X210577200Y-197085771D01*
X210720057Y-196871485D01*
X210791485Y-196728628D01*
X210862914Y-196514342D01*
X210934342Y-196157200D01*
X210934342Y-195871485D01*
X210862914Y-195514342D01*
X210791485Y-195300057D01*
X210720057Y-195157200D01*
X210577200Y-194942914D01*
X210505771Y-194871485D01*
X211648628Y-196014342D02*
X212791485Y-196014342D01*
X214291485Y-196585771D02*
X213434342Y-196585771D01*
X213862914Y-196585771D02*
X213862914Y-195085771D01*
X213720057Y-195300057D01*
X213577200Y-195442914D01*
X213434342Y-195514342D01*
D10*
D11*
X177002200Y-191507200D02*
X285002200Y-191507200D01*
D10*
D12*
X264411485Y-193785771D02*
X263911485Y-193071485D01*
X263554342Y-193785771D02*
X263554342Y-192285771D01*
X264125771Y-192285771D01*
X264268628Y-192357200D01*
X264340057Y-192428628D01*
X264411485Y-192571485D01*
X264411485Y-192785771D01*
X264340057Y-192928628D01*
X264268628Y-193000057D01*
X264125771Y-193071485D01*
X263554342Y-193071485D01*
X265625771Y-193714342D02*
X265482914Y-193785771D01*
X265197200Y-193785771D01*
X265054342Y-193714342D01*
X264982914Y-193571485D01*
X264982914Y-193000057D01*
X265054342Y-192857200D01*
X265197200Y-192785771D01*
X265482914Y-192785771D01*
X265625771Y-192857200D01*
X265697200Y-193000057D01*
X265697200Y-193142914D01*
X264982914Y-193285771D01*
X266197200Y-192785771D02*
X266554342Y-193785771D01*
X266911485Y-192785771D01*
X267482914Y-193642914D02*
X267554342Y-193714342D01*
X267482914Y-193785771D01*
X267411485Y-193714342D01*
X267482914Y-193642914D01*
X267482914Y-193785771D01*
X267482914Y-192857200D02*
X267554342Y-192928628D01*
X267482914Y-193000057D01*
X267411485Y-192928628D01*
X267482914Y-192857200D01*
X267482914Y-193000057D01*
D10*
D11*
X178362914Y-193714342D02*
X178577200Y-193785771D01*
X178934342Y-193785771D01*
X179077200Y-193714342D01*
X179148628Y-193642914D01*
X179220057Y-193500057D01*
X179220057Y-193357200D01*
X179148628Y-193214342D01*
X179077200Y-193142914D01*
X178934342Y-193071485D01*
X178648628Y-193000057D01*
X178505771Y-192928628D01*
X178434342Y-192857200D01*
X178362914Y-192714342D01*
X178362914Y-192571485D01*
X178434342Y-192428628D01*
X178505771Y-192357200D01*
X178648628Y-192285771D01*
X179005771Y-192285771D01*
X179220057Y-192357200D01*
X179862914Y-193785771D02*
X179862914Y-192785771D01*
X179862914Y-192285771D02*
X179791485Y-192357200D01*
X179862914Y-192428628D01*
X179934342Y-192357200D01*
X179862914Y-192285771D01*
X179862914Y-192428628D01*
X180434342Y-192785771D02*
X181220057Y-192785771D01*
X180434342Y-193785771D01*
X181220057Y-193785771D01*
X182362914Y-193714342D02*
X182220057Y-193785771D01*
X181934342Y-193785771D01*
X181791485Y-193714342D01*
X181720057Y-193571485D01*
X181720057Y-193000057D01*
X181791485Y-192857200D01*
X181934342Y-192785771D01*
X182220057Y-192785771D01*
X182362914Y-192857200D01*
X182434342Y-193000057D01*
X182434342Y-193142914D01*
X181720057Y-193285771D01*
X183077200Y-193642914D02*
X183148628Y-193714342D01*
X183077200Y-193785771D01*
X183005771Y-193714342D01*
X183077200Y-193642914D01*
X183077200Y-193785771D01*
X183077200Y-192857200D02*
X183148628Y-192928628D01*
X183077200Y-193000057D01*
X183005771Y-192928628D01*
X183077200Y-192857200D01*
X183077200Y-193000057D01*
X184862914Y-193357200D02*
X185577200Y-193357200D01*
X184720057Y-193785771D02*
X185220057Y-192285771D01*
X185720057Y-193785771D01*
X186862914Y-192785771D02*
X186862914Y-193785771D01*
X186505771Y-192214342D02*
X186148628Y-193285771D01*
X187077200Y-193285771D01*
D10*
D11*
X263434342Y-196585771D02*
X263434342Y-195085771D01*
X264791485Y-196585771D02*
X264791485Y-195085771D01*
X264791485Y-196514342D02*
X264648628Y-196585771D01*
X264362914Y-196585771D01*
X264220057Y-196514342D01*
X264148628Y-196442914D01*
X264077200Y-196300057D01*
X264077200Y-195871485D01*
X264148628Y-195728628D01*
X264220057Y-195657200D01*
X264362914Y-195585771D01*
X264648628Y-195585771D01*
X264791485Y-195657200D01*
X265505771Y-196442914D02*
X265577200Y-196514342D01*
X265505771Y-196585771D01*
X265434342Y-196514342D01*
X265505771Y-196442914D01*
X265505771Y-196585771D01*
X265505771Y-195657200D02*
X265577200Y-195728628D01*
X265505771Y-195800057D01*
X265434342Y-195728628D01*
X265505771Y-195657200D01*
X265505771Y-195800057D01*
X268148628Y-196585771D02*
X267291485Y-196585771D01*
X267720057Y-196585771D02*
X267720057Y-195085771D01*
X267577200Y-195300057D01*
X267434342Y-195442914D01*
X267291485Y-195514342D01*
X269862914Y-195014342D02*
X268577200Y-196942914D01*
X271148628Y-196585771D02*
X270291485Y-196585771D01*
X270720057Y-196585771D02*
X270720057Y-195085771D01*
X270577200Y-195300057D01*
X270434342Y-195442914D01*
X270291485Y-195514342D01*
D10*
D11*
X177002200Y-187507200D02*
X285002200Y-187507200D01*
D10*
D13*
X178714580Y-188211961D02*
X179857438Y-188211961D01*
X179036009Y-190211961D02*
X179286009Y-188211961D01*
X180274104Y-190211961D02*
X180440771Y-188878628D01*
X180524104Y-188211961D02*
X180416961Y-188307200D01*
X180500295Y-188402438D01*
X180607438Y-188307200D01*
X180524104Y-188211961D01*
X180500295Y-188402438D01*
X181107438Y-188878628D02*
X181869342Y-188878628D01*
X181476485Y-188211961D02*
X181262200Y-189926247D01*
X181333628Y-190116723D01*
X181512200Y-190211961D01*
X181702676Y-190211961D01*
X182655057Y-190211961D02*
X182476485Y-190116723D01*
X182405057Y-189926247D01*
X182619342Y-188211961D01*
X184190771Y-190116723D02*
X183988390Y-190211961D01*
X183607438Y-190211961D01*
X183428866Y-190116723D01*
X183357438Y-189926247D01*
X183452676Y-189164342D01*
X183571723Y-188973866D01*
X183774104Y-188878628D01*
X184155057Y-188878628D01*
X184333628Y-188973866D01*
X184405057Y-189164342D01*
X184381247Y-189354819D01*
X183405057Y-189545295D01*
X185155057Y-190021485D02*
X185238390Y-190116723D01*
X185131247Y-190211961D01*
X185047914Y-190116723D01*
X185155057Y-190021485D01*
X185131247Y-190211961D01*
X185286009Y-188973866D02*
X185369342Y-189069104D01*
X185262200Y-189164342D01*
X185178866Y-189069104D01*
X185286009Y-188973866D01*
X185262200Y-189164342D01*
D10*
D11*
X178934342Y-185600057D02*
X178434342Y-185600057D01*
X178434342Y-186385771D02*
X178434342Y-184885771D01*
X179148628Y-184885771D01*
X179720057Y-186385771D02*
X179720057Y-185385771D01*
X179720057Y-184885771D02*
X179648628Y-184957200D01*
X179720057Y-185028628D01*
X179791485Y-184957200D01*
X179720057Y-184885771D01*
X179720057Y-185028628D01*
X180648628Y-186385771D02*
X180505771Y-186314342D01*
X180434342Y-186171485D01*
X180434342Y-184885771D01*
X181791485Y-186314342D02*
X181648628Y-186385771D01*
X181362914Y-186385771D01*
X181220057Y-186314342D01*
X181148628Y-186171485D01*
X181148628Y-185600057D01*
X181220057Y-185457200D01*
X181362914Y-185385771D01*
X181648628Y-185385771D01*
X181791485Y-185457200D01*
X181862914Y-185600057D01*
X181862914Y-185742914D01*
X181148628Y-185885771D01*
X182505771Y-186242914D02*
X182577200Y-186314342D01*
X182505771Y-186385771D01*
X182434342Y-186314342D01*
X182505771Y-186242914D01*
X182505771Y-186385771D01*
X182505771Y-185457200D02*
X182577200Y-185528628D01*
X182505771Y-185600057D01*
X182434342Y-185528628D01*
X182505771Y-185457200D01*
X182505771Y-185600057D01*
X184291485Y-186314342D02*
X184505771Y-186385771D01*
X184862914Y-186385771D01*
X185005771Y-186314342D01*
X185077200Y-186242914D01*
X185148628Y-186100057D01*
X185148628Y-185957200D01*
X185077200Y-185814342D01*
X185005771Y-185742914D01*
X184862914Y-185671485D01*
X184577200Y-185600057D01*
X184434342Y-185528628D01*
X184362914Y-185457200D01*
X184291485Y-185314342D01*
X184291485Y-185171485D01*
X184362914Y-185028628D01*
X184434342Y-184957200D01*
X184577200Y-184885771D01*
X184934342Y-184885771D01*
X185148628Y-184957200D01*
X185791485Y-186385771D02*
X185791485Y-184885771D01*
X186434342Y-186385771D02*
X186434342Y-185600057D01*
X186362914Y-185457200D01*
X186220057Y-185385771D01*
X186005771Y-185385771D01*
X185862914Y-185457200D01*
X185791485Y-185528628D01*
X187148628Y-186385771D02*
X187148628Y-185385771D01*
X187148628Y-184885771D02*
X187077200Y-184957200D01*
X187148628Y-185028628D01*
X187220057Y-184957200D01*
X187148628Y-184885771D01*
X187148628Y-185028628D01*
X188434342Y-186314342D02*
X188291485Y-186385771D01*
X188005771Y-186385771D01*
X187862914Y-186314342D01*
X187791485Y-186171485D01*
X187791485Y-185600057D01*
X187862914Y-185457200D01*
X188005771Y-185385771D01*
X188291485Y-185385771D01*
X188434342Y-185457200D01*
X188505771Y-185600057D01*
X188505771Y-185742914D01*
X187791485Y-185885771D01*
X189362914Y-186385771D02*
X189220057Y-186314342D01*
X189148628Y-186171485D01*
X189148628Y-184885771D01*
X190577200Y-186385771D02*
X190577200Y-184885771D01*
X190577200Y-186314342D02*
X190434342Y-186385771D01*
X190148628Y-186385771D01*
X190005771Y-186314342D01*
X189934342Y-186242914D01*
X189862914Y-186100057D01*
X189862914Y-185671485D01*
X189934342Y-185528628D01*
X190005771Y-185457200D01*
X190148628Y-185385771D01*
X190434342Y-185385771D01*
X190577200Y-185457200D01*
X192362914Y-186314342D02*
X192577200Y-186385771D01*
X192934342Y-186385771D01*
X193077200Y-186314342D01*
X193148628Y-186242914D01*
X193220057Y-186100057D01*
X193220057Y-185957200D01*
X193148628Y-185814342D01*
X193077200Y-185742914D01*
X192934342Y-185671485D01*
X192648628Y-185600057D01*
X192505771Y-185528628D01*
X192434342Y-185457200D01*
X192362914Y-185314342D01*
X192362914Y-185171485D01*
X192434342Y-185028628D01*
X192505771Y-184957200D01*
X192648628Y-184885771D01*
X193005771Y-184885771D01*
X193220057Y-184957200D01*
X193648628Y-184885771D02*
X194505771Y-184885771D01*
X194077200Y-186385771D02*
X194077200Y-184885771D01*
X195005771Y-186385771D02*
X195005771Y-184885771D01*
X195505771Y-185957200D01*
X196005771Y-184885771D01*
X196005771Y-186385771D01*
X196934342Y-185528628D02*
X196791485Y-185457200D01*
X196720057Y-185385771D01*
X196648628Y-185242914D01*
X196648628Y-185171485D01*
X196720057Y-185028628D01*
X196791485Y-184957200D01*
X196934342Y-184885771D01*
X197220057Y-184885771D01*
X197362914Y-184957200D01*
X197434342Y-185028628D01*
X197505771Y-185171485D01*
X197505771Y-185242914D01*
X197434342Y-185385771D01*
X197362914Y-185457200D01*
X197220057Y-185528628D01*
X196934342Y-185528628D01*
X196791485Y-185600057D01*
X196720057Y-185671485D01*
X196648628Y-185814342D01*
X196648628Y-186100057D01*
X196720057Y-186242914D01*
X196791485Y-186314342D01*
X196934342Y-186385771D01*
X197220057Y-186385771D01*
X197362914Y-186314342D01*
X197434342Y-186242914D01*
X197505771Y-186100057D01*
X197505771Y-185814342D01*
X197434342Y-185671485D01*
X197362914Y-185600057D01*
X197220057Y-185528628D01*
X199291485Y-185814342D02*
X200434342Y-185814342D01*
X202291485Y-186385771D02*
X202291485Y-184885771D01*
X203148628Y-186385771D01*
X203148628Y-184885771D01*
X204505771Y-185385771D02*
X204505771Y-186385771D01*
X203862914Y-185385771D02*
X203862914Y-186171485D01*
X203934342Y-186314342D01*
X204077200Y-186385771D01*
X204291485Y-186385771D01*
X204434342Y-186314342D01*
X204505771Y-186242914D01*
X204362914Y-184814342D02*
X204148628Y-185028628D01*
X205862914Y-186314342D02*
X205720057Y-186385771D01*
X205434342Y-186385771D01*
X205291485Y-186314342D01*
X205220057Y-186242914D01*
X205148628Y-186100057D01*
X205148628Y-185671485D01*
X205220057Y-185528628D01*
X205291485Y-185457200D01*
X205434342Y-185385771D01*
X205720057Y-185385771D01*
X205862914Y-185457200D01*
X206720057Y-186385771D02*
X206577200Y-186314342D01*
X206505771Y-186171485D01*
X206505771Y-184885771D01*
X207862914Y-186314342D02*
X207720057Y-186385771D01*
X207434342Y-186385771D01*
X207291485Y-186314342D01*
X207220057Y-186171485D01*
X207220057Y-185600057D01*
X207291485Y-185457200D01*
X207434342Y-185385771D01*
X207720057Y-185385771D01*
X207862914Y-185457200D01*
X207934342Y-185600057D01*
X207934342Y-185742914D01*
X207220057Y-185885771D01*
X208791485Y-186385771D02*
X208648628Y-186314342D01*
X208577200Y-186242914D01*
X208505771Y-186100057D01*
X208505771Y-185671485D01*
X208577200Y-185528628D01*
X208648628Y-185457200D01*
X208791485Y-185385771D01*
X209005771Y-185385771D01*
X209148628Y-185457200D01*
X209220057Y-185528628D01*
X209291485Y-185671485D01*
X209291485Y-186100057D01*
X209220057Y-186242914D01*
X209148628Y-186314342D01*
X209005771Y-186385771D01*
X208791485Y-186385771D01*
X209934342Y-186242914D02*
X210005771Y-186314342D01*
X209934342Y-186385771D01*
X209862914Y-186314342D01*
X209934342Y-186242914D01*
X209934342Y-186385771D01*
X210648628Y-186385771D02*
X210648628Y-184885771D01*
X210791485Y-185814342D02*
X211220057Y-186385771D01*
X211220057Y-185385771D02*
X210648628Y-185957200D01*
X211862914Y-186385771D02*
X211862914Y-185385771D01*
X211862914Y-184885771D02*
X211791485Y-184957200D01*
X211862914Y-185028628D01*
X211934342Y-184957200D01*
X211862914Y-184885771D01*
X211862914Y-185028628D01*
X213220057Y-186314342D02*
X213077200Y-186385771D01*
X212791485Y-186385771D01*
X212648628Y-186314342D01*
X212577200Y-186242914D01*
X212505771Y-186100057D01*
X212505771Y-185671485D01*
X212577200Y-185528628D01*
X212648628Y-185457200D01*
X212791485Y-185385771D01*
X213077200Y-185385771D01*
X213220057Y-185457200D01*
X214505771Y-186385771D02*
X214505771Y-185600057D01*
X214434342Y-185457200D01*
X214291485Y-185385771D01*
X214005771Y-185385771D01*
X213862914Y-185457200D01*
X214505771Y-186314342D02*
X214362914Y-186385771D01*
X214005771Y-186385771D01*
X213862914Y-186314342D01*
X213791485Y-186171485D01*
X213791485Y-186028628D01*
X213862914Y-185885771D01*
X214005771Y-185814342D01*
X214362914Y-185814342D01*
X214505771Y-185742914D01*
X215862914Y-186385771D02*
X215862914Y-184885771D01*
X215862914Y-186314342D02*
X215720057Y-186385771D01*
X215434342Y-186385771D01*
X215291485Y-186314342D01*
X215220057Y-186242914D01*
X215148628Y-186100057D01*
X215148628Y-185671485D01*
X215220057Y-185528628D01*
X215291485Y-185457200D01*
X215434342Y-185385771D01*
X215720057Y-185385771D01*
X215862914Y-185457200D01*
X216220057Y-186528628D02*
X217362914Y-186528628D01*
X217720057Y-185385771D02*
X217720057Y-186885771D01*
X217720057Y-185457200D02*
X217862914Y-185385771D01*
X218148628Y-185385771D01*
X218291485Y-185457200D01*
X218362914Y-185528628D01*
X218434342Y-185671485D01*
X218434342Y-186100057D01*
X218362914Y-186242914D01*
X218291485Y-186314342D01*
X218148628Y-186385771D01*
X217862914Y-186385771D01*
X217720057Y-186314342D01*
X219720057Y-186314342D02*
X219577200Y-186385771D01*
X219291485Y-186385771D01*
X219148628Y-186314342D01*
X219077200Y-186242914D01*
X219005771Y-186100057D01*
X219005771Y-185671485D01*
X219077200Y-185528628D01*
X219148628Y-185457200D01*
X219291485Y-185385771D01*
X219577200Y-185385771D01*
X219720057Y-185457200D01*
X220362914Y-186385771D02*
X220362914Y-184885771D01*
X220362914Y-185457200D02*
X220505771Y-185385771D01*
X220791485Y-185385771D01*
X220934342Y-185457200D01*
X221005771Y-185528628D01*
X221077200Y-185671485D01*
X221077200Y-186100057D01*
X221005771Y-186242914D01*
X220934342Y-186314342D01*
X220791485Y-186385771D01*
X220505771Y-186385771D01*
X220362914Y-186314342D01*
D10*
D11*
X177002200Y-181507200D02*
X285002200Y-181507200D01*
D10*
D11*
X178362914Y-183614342D02*
X178577200Y-183685771D01*
X178934342Y-183685771D01*
X179077200Y-183614342D01*
X179148628Y-183542914D01*
X179220057Y-183400057D01*
X179220057Y-183257200D01*
X179148628Y-183114342D01*
X179077200Y-183042914D01*
X178934342Y-182971485D01*
X178648628Y-182900057D01*
X178505771Y-182828628D01*
X178434342Y-182757200D01*
X178362914Y-182614342D01*
X178362914Y-182471485D01*
X178434342Y-182328628D01*
X178505771Y-182257200D01*
X178648628Y-182185771D01*
X179005771Y-182185771D01*
X179220057Y-182257200D01*
X179862914Y-183685771D02*
X179862914Y-182185771D01*
X180505771Y-183685771D02*
X180505771Y-182900057D01*
X180434342Y-182757200D01*
X180291485Y-182685771D01*
X180077200Y-182685771D01*
X179934342Y-182757200D01*
X179862914Y-182828628D01*
X181791485Y-183614342D02*
X181648628Y-183685771D01*
X181362914Y-183685771D01*
X181220057Y-183614342D01*
X181148628Y-183471485D01*
X181148628Y-182900057D01*
X181220057Y-182757200D01*
X181362914Y-182685771D01*
X181648628Y-182685771D01*
X181791485Y-182757200D01*
X181862914Y-182900057D01*
X181862914Y-183042914D01*
X181148628Y-183185771D01*
X183077200Y-183614342D02*
X182934342Y-183685771D01*
X182648628Y-183685771D01*
X182505771Y-183614342D01*
X182434342Y-183471485D01*
X182434342Y-182900057D01*
X182505771Y-182757200D01*
X182648628Y-182685771D01*
X182934342Y-182685771D01*
X183077200Y-182757200D01*
X183148628Y-182900057D01*
X183148628Y-183042914D01*
X182434342Y-183185771D01*
X183577200Y-182685771D02*
X184148628Y-182685771D01*
X183791485Y-182185771D02*
X183791485Y-183471485D01*
X183862914Y-183614342D01*
X184005771Y-183685771D01*
X184148628Y-183685771D01*
X184648628Y-183542914D02*
X184720057Y-183614342D01*
X184648628Y-183685771D01*
X184577200Y-183614342D01*
X184648628Y-183542914D01*
X184648628Y-183685771D01*
X184648628Y-182757200D02*
X184720057Y-182828628D01*
X184648628Y-182900057D01*
X184577200Y-182828628D01*
X184648628Y-182757200D01*
X184648628Y-182900057D01*
D10*
D11*
X197002200Y-191507200D02*
X197002200Y-194507200D01*
D10*
D11*
X261002200Y-191507200D02*
X261002200Y-198007200D01*
D12*
X115178571Y-69928571D02*
X114678571Y-71428571D01*
X114178571Y-69928571D01*
X112892857Y-71428571D02*
X113750000Y-71428571D01*
X113321428Y-71428571D02*
X113321428Y-69928571D01*
X113464285Y-70142857D01*
X113607142Y-70285714D01*
X113750000Y-70357142D01*
X112250000Y-71285714D02*
X112178571Y-71357142D01*
X112250000Y-71428571D01*
X112321428Y-71357142D01*
X112250000Y-71285714D01*
X112250000Y-71428571D01*
X110750000Y-71428571D02*
X111607142Y-71428571D01*
X111178571Y-71428571D02*
X111178571Y-69928571D01*
X111321428Y-70142857D01*
X111464285Y-70285714D01*
X111607142Y-70357142D01*
X108964285Y-70857142D02*
X107821428Y-70857142D01*
X105678571Y-69928571D02*
X105535714Y-69928571D01*
X105392857Y-70000000D01*
X105321428Y-70071428D01*
X105250000Y-70214285D01*
X105178571Y-70500000D01*
X105178571Y-70857142D01*
X105250000Y-71142857D01*
X105321428Y-71285714D01*
X105392857Y-71357142D01*
X105535714Y-71428571D01*
X105678571Y-71428571D01*
X105821428Y-71357142D01*
X105892857Y-71285714D01*
X105964285Y-71142857D01*
X106035714Y-70857142D01*
X106035714Y-70500000D01*
X105964285Y-70214285D01*
X105892857Y-70071428D01*
X105821428Y-70000000D01*
X105678571Y-69928571D01*
X103750000Y-71428571D02*
X104607142Y-71428571D01*
X104178571Y-71428571D02*
X104178571Y-69928571D01*
X104321428Y-70142857D01*
X104464285Y-70285714D01*
X104607142Y-70357142D01*
X102035714Y-69857142D02*
X103321428Y-71785714D01*
X101607142Y-70071428D02*
X101535714Y-70000000D01*
X101392857Y-69928571D01*
X101035714Y-69928571D01*
X100892857Y-70000000D01*
X100821428Y-70071428D01*
X100750000Y-70214285D01*
X100750000Y-70357142D01*
X100821428Y-70571428D01*
X101678571Y-71428571D01*
X100750000Y-71428571D01*
X99821428Y-69928571D02*
X99678571Y-69928571D01*
X99535714Y-70000000D01*
X99464285Y-70071428D01*
X99392857Y-70214285D01*
X99321428Y-70500000D01*
X99321428Y-70857142D01*
X99392857Y-71142857D01*
X99464285Y-71285714D01*
X99535714Y-71357142D01*
X99678571Y-71428571D01*
X99821428Y-71428571D01*
X99964285Y-71357142D01*
X100035714Y-71285714D01*
X100107142Y-71142857D01*
X100178571Y-70857142D01*
X100178571Y-70500000D01*
X100107142Y-70214285D01*
X100035714Y-70071428D01*
X99964285Y-70000000D01*
X99821428Y-69928571D01*
X98750000Y-70071428D02*
X98678571Y-70000000D01*
X98535714Y-69928571D01*
X98178571Y-69928571D01*
X98035714Y-70000000D01*
X97964285Y-70071428D01*
X97892857Y-70214285D01*
X97892857Y-70357142D01*
X97964285Y-70571428D01*
X98821428Y-71428571D01*
X97892857Y-71428571D01*
X96964285Y-69928571D02*
X96821428Y-69928571D01*
X96678571Y-70000000D01*
X96607142Y-70071428D01*
X96535714Y-70214285D01*
X96464285Y-70500000D01*
X96464285Y-70857142D01*
X96535714Y-71142857D01*
X96607142Y-71285714D01*
X96678571Y-71357142D01*
X96821428Y-71428571D01*
X96964285Y-71428571D01*
X97107142Y-71357142D01*
X97178571Y-71285714D01*
X97250000Y-71142857D01*
X97321428Y-70857142D01*
X97321428Y-70500000D01*
X97250000Y-70214285D01*
X97178571Y-70071428D01*
X97107142Y-70000000D01*
X96964285Y-69928571D01*
X173603571Y-104271428D02*
X172103571Y-104271428D01*
X173175000Y-104771428D01*
X172103571Y-105271428D01*
X173603571Y-105271428D01*
X173603571Y-106628571D02*
X172817857Y-106628571D01*
X172675000Y-106557142D01*
X172603571Y-106414285D01*
X172603571Y-106128571D01*
X172675000Y-105985714D01*
X173532142Y-106628571D02*
X173603571Y-106485714D01*
X173603571Y-106128571D01*
X173532142Y-105985714D01*
X173389285Y-105914285D01*
X173246428Y-105914285D01*
X173103571Y-105985714D01*
X173032142Y-106128571D01*
X173032142Y-106485714D01*
X172960714Y-106628571D01*
X173603571Y-107985714D02*
X172103571Y-107985714D01*
X173532142Y-107985714D02*
X173603571Y-107842857D01*
X173603571Y-107557142D01*
X173532142Y-107414285D01*
X173460714Y-107342857D01*
X173317857Y-107271428D01*
X172889285Y-107271428D01*
X172746428Y-107342857D01*
X172675000Y-107414285D01*
X172603571Y-107557142D01*
X172603571Y-107842857D01*
X172675000Y-107985714D01*
X173532142Y-109271428D02*
X173603571Y-109128571D01*
X173603571Y-108842857D01*
X173532142Y-108700000D01*
X173389285Y-108628571D01*
X172817857Y-108628571D01*
X172675000Y-108700000D01*
X172603571Y-108842857D01*
X172603571Y-109128571D01*
X172675000Y-109271428D01*
X172817857Y-109342857D01*
X172960714Y-109342857D01*
X173103571Y-108628571D01*
X173603571Y-111128571D02*
X172603571Y-111128571D01*
X172103571Y-111128571D02*
X172175000Y-111057142D01*
X172246428Y-111128571D01*
X172175000Y-111200000D01*
X172103571Y-111128571D01*
X172246428Y-111128571D01*
X172603571Y-111842857D02*
X173603571Y-111842857D01*
X172746428Y-111842857D02*
X172675000Y-111914285D01*
X172603571Y-112057142D01*
X172603571Y-112271428D01*
X172675000Y-112414285D01*
X172817857Y-112485714D01*
X173603571Y-112485714D01*
X172817857Y-114842857D02*
X172889285Y-115057142D01*
X172960714Y-115128571D01*
X173103571Y-115200000D01*
X173317857Y-115200000D01*
X173460714Y-115128571D01*
X173532142Y-115057142D01*
X173603571Y-114914285D01*
X173603571Y-114342857D01*
X172103571Y-114342857D01*
X172103571Y-114842857D01*
X172175000Y-114985714D01*
X172246428Y-115057142D01*
X172389285Y-115128571D01*
X172532142Y-115128571D01*
X172675000Y-115057142D01*
X172746428Y-114985714D01*
X172817857Y-114842857D01*
X172817857Y-114342857D01*
X173603571Y-115842857D02*
X172603571Y-115842857D01*
X172889285Y-115842857D02*
X172746428Y-115914285D01*
X172675000Y-115985714D01*
X172603571Y-116128571D01*
X172603571Y-116271428D01*
X173603571Y-117414285D02*
X172817857Y-117414285D01*
X172675000Y-117342857D01*
X172603571Y-117200000D01*
X172603571Y-116914285D01*
X172675000Y-116771428D01*
X173532142Y-117414285D02*
X173603571Y-117271428D01*
X173603571Y-116914285D01*
X173532142Y-116771428D01*
X173389285Y-116700000D01*
X173246428Y-116700000D01*
X173103571Y-116771428D01*
X173032142Y-116914285D01*
X173032142Y-117271428D01*
X172960714Y-117414285D01*
X172603571Y-117985714D02*
X172603571Y-118771428D01*
X173603571Y-117985714D01*
X173603571Y-118771428D01*
X173603571Y-119342857D02*
X172603571Y-119342857D01*
X172103571Y-119342857D02*
X172175000Y-119271428D01*
X172246428Y-119342857D01*
X172175000Y-119414285D01*
X172103571Y-119342857D01*
X172246428Y-119342857D01*
X173603571Y-120271428D02*
X173532142Y-120128571D01*
X173389285Y-120057142D01*
X172103571Y-120057142D01*
X109466428Y-56928571D02*
X109466428Y-55428571D01*
X109109285Y-55428571D01*
X108895000Y-55500000D01*
X108752142Y-55642857D01*
X108680714Y-55785714D01*
X108609285Y-56071428D01*
X108609285Y-56285714D01*
X108680714Y-56571428D01*
X108752142Y-56714285D01*
X108895000Y-56857142D01*
X109109285Y-56928571D01*
X109466428Y-56928571D01*
X107395000Y-56857142D02*
X107537857Y-56928571D01*
X107823571Y-56928571D01*
X107966428Y-56857142D01*
X108037857Y-56714285D01*
X108037857Y-56142857D01*
X107966428Y-56000000D01*
X107823571Y-55928571D01*
X107537857Y-55928571D01*
X107395000Y-56000000D01*
X107323571Y-56142857D01*
X107323571Y-56285714D01*
X108037857Y-56428571D01*
X106752142Y-56857142D02*
X106609285Y-56928571D01*
X106323571Y-56928571D01*
X106180714Y-56857142D01*
X106109285Y-56714285D01*
X106109285Y-56642857D01*
X106180714Y-56500000D01*
X106323571Y-56428571D01*
X106537857Y-56428571D01*
X106680714Y-56357142D01*
X106752142Y-56214285D01*
X106752142Y-56142857D01*
X106680714Y-56000000D01*
X106537857Y-55928571D01*
X106323571Y-55928571D01*
X106180714Y-56000000D01*
X105466428Y-56928571D02*
X105466428Y-55928571D01*
X105466428Y-55428571D02*
X105537857Y-55500000D01*
X105466428Y-55571428D01*
X105395000Y-55500000D01*
X105466428Y-55428571D01*
X105466428Y-55571428D01*
X104109285Y-55928571D02*
X104109285Y-57142857D01*
X104180714Y-57285714D01*
X104252142Y-57357142D01*
X104395000Y-57428571D01*
X104609285Y-57428571D01*
X104752142Y-57357142D01*
X104109285Y-56857142D02*
X104252142Y-56928571D01*
X104537857Y-56928571D01*
X104680714Y-56857142D01*
X104752142Y-56785714D01*
X104823571Y-56642857D01*
X104823571Y-56214285D01*
X104752142Y-56071428D01*
X104680714Y-56000000D01*
X104537857Y-55928571D01*
X104252142Y-55928571D01*
X104109285Y-56000000D01*
X103395000Y-55928571D02*
X103395000Y-56928571D01*
X103395000Y-56071428D02*
X103323571Y-56000000D01*
X103180714Y-55928571D01*
X102966428Y-55928571D01*
X102823571Y-56000000D01*
X102752142Y-56142857D01*
X102752142Y-56928571D01*
X101466428Y-56857142D02*
X101609285Y-56928571D01*
X101895000Y-56928571D01*
X102037857Y-56857142D01*
X102109285Y-56714285D01*
X102109285Y-56142857D01*
X102037857Y-56000000D01*
X101895000Y-55928571D01*
X101609285Y-55928571D01*
X101466428Y-56000000D01*
X101395000Y-56142857D01*
X101395000Y-56285714D01*
X102109285Y-56428571D01*
X100109285Y-56928571D02*
X100109285Y-55428571D01*
X100109285Y-56857142D02*
X100252142Y-56928571D01*
X100537857Y-56928571D01*
X100680714Y-56857142D01*
X100752142Y-56785714D01*
X100823571Y-56642857D01*
X100823571Y-56214285D01*
X100752142Y-56071428D01*
X100680714Y-56000000D01*
X100537857Y-55928571D01*
X100252142Y-55928571D01*
X100109285Y-56000000D01*
X98252142Y-56928571D02*
X98252142Y-55428571D01*
X98252142Y-56000000D02*
X98109285Y-55928571D01*
X97823571Y-55928571D01*
X97680714Y-56000000D01*
X97609285Y-56071428D01*
X97537857Y-56214285D01*
X97537857Y-56642857D01*
X97609285Y-56785714D01*
X97680714Y-56857142D01*
X97823571Y-56928571D01*
X98109285Y-56928571D01*
X98252142Y-56857142D01*
X97037857Y-55928571D02*
X96680714Y-56928571D01*
X96323571Y-55928571D02*
X96680714Y-56928571D01*
X96823571Y-57285714D01*
X96895000Y-57357142D01*
X97037857Y-57428571D01*
X95752142Y-56785714D02*
X95680714Y-56857142D01*
X95752142Y-56928571D01*
X95823571Y-56857142D01*
X95752142Y-56785714D01*
X95752142Y-56928571D01*
X95752142Y-56000000D02*
X95680714Y-56071428D01*
X95752142Y-56142857D01*
X95823571Y-56071428D01*
X95752142Y-56000000D01*
X95752142Y-56142857D01*
X130823571Y-59335714D02*
X130895000Y-59407142D01*
X131109285Y-59478571D01*
X131252142Y-59478571D01*
X131466428Y-59407142D01*
X131609285Y-59264285D01*
X131680714Y-59121428D01*
X131752142Y-58835714D01*
X131752142Y-58621428D01*
X131680714Y-58335714D01*
X131609285Y-58192857D01*
X131466428Y-58050000D01*
X131252142Y-57978571D01*
X131109285Y-57978571D01*
X130895000Y-58050000D01*
X130823571Y-58121428D01*
X129537857Y-59478571D02*
X129537857Y-58692857D01*
X129609285Y-58550000D01*
X129752142Y-58478571D01*
X130037857Y-58478571D01*
X130180714Y-58550000D01*
X129537857Y-59407142D02*
X129680714Y-59478571D01*
X130037857Y-59478571D01*
X130180714Y-59407142D01*
X130252142Y-59264285D01*
X130252142Y-59121428D01*
X130180714Y-58978571D01*
X130037857Y-58907142D01*
X129680714Y-58907142D01*
X129537857Y-58835714D01*
X128180714Y-59478571D02*
X128180714Y-57978571D01*
X128180714Y-59407142D02*
X128323571Y-59478571D01*
X128609285Y-59478571D01*
X128752142Y-59407142D01*
X128823571Y-59335714D01*
X128895000Y-59192857D01*
X128895000Y-58764285D01*
X128823571Y-58621428D01*
X128752142Y-58550000D01*
X128609285Y-58478571D01*
X128323571Y-58478571D01*
X128180714Y-58550000D01*
X126823571Y-58478571D02*
X126823571Y-59478571D01*
X127466428Y-58478571D02*
X127466428Y-59264285D01*
X127395000Y-59407142D01*
X127252142Y-59478571D01*
X127037857Y-59478571D01*
X126895000Y-59407142D01*
X126823571Y-59335714D01*
X124966428Y-59478571D02*
X124966428Y-57978571D01*
X124395000Y-57978571D01*
X124252142Y-58050000D01*
X124180714Y-58121428D01*
X124109285Y-58264285D01*
X124109285Y-58478571D01*
X124180714Y-58621428D01*
X124252142Y-58692857D01*
X124395000Y-58764285D01*
X124966428Y-58764285D01*
X122823571Y-59478571D02*
X122823571Y-58692857D01*
X122895000Y-58550000D01*
X123037857Y-58478571D01*
X123323571Y-58478571D01*
X123466428Y-58550000D01*
X122823571Y-59407142D02*
X122966428Y-59478571D01*
X123323571Y-59478571D01*
X123466428Y-59407142D01*
X123537857Y-59264285D01*
X123537857Y-59121428D01*
X123466428Y-58978571D01*
X123323571Y-58907142D01*
X122966428Y-58907142D01*
X122823571Y-58835714D01*
X121895000Y-59478571D02*
X122037857Y-59407142D01*
X122109285Y-59264285D01*
X122109285Y-57978571D01*
X121323571Y-59478571D02*
X121323571Y-58478571D01*
X121323571Y-58621428D02*
X121252142Y-58550000D01*
X121109285Y-58478571D01*
X120895000Y-58478571D01*
X120752142Y-58550000D01*
X120680714Y-58692857D01*
X120680714Y-59478571D01*
X120680714Y-58692857D02*
X120609285Y-58550000D01*
X120466428Y-58478571D01*
X120252142Y-58478571D01*
X120109285Y-58550000D01*
X120037857Y-58692857D01*
X120037857Y-59478571D01*
X119323571Y-59478571D02*
X119323571Y-58478571D01*
X119323571Y-57978571D02*
X119395000Y-58050000D01*
X119323571Y-58121428D01*
X119252142Y-58050000D01*
X119323571Y-57978571D01*
X119323571Y-58121428D01*
X118037857Y-59407142D02*
X118180714Y-59478571D01*
X118466428Y-59478571D01*
X118609285Y-59407142D01*
X118680714Y-59264285D01*
X118680714Y-58692857D01*
X118609285Y-58550000D01*
X118466428Y-58478571D01*
X118180714Y-58478571D01*
X118037857Y-58550000D01*
X117966428Y-58692857D01*
X117966428Y-58835714D01*
X118680714Y-58978571D01*
X117323571Y-59478571D02*
X117323571Y-58478571D01*
X117323571Y-58764285D02*
X117252142Y-58621428D01*
X117180714Y-58550000D01*
X117037857Y-58478571D01*
X116895000Y-58478571D01*
X116395000Y-59478571D02*
X116395000Y-58478571D01*
X116395000Y-57978571D02*
X116466428Y-58050000D01*
X116395000Y-58121428D01*
X116323571Y-58050000D01*
X116395000Y-57978571D01*
X116395000Y-58121428D01*
X113323571Y-59478571D02*
X113395000Y-59478571D01*
X113537857Y-59407142D01*
X113752142Y-59192857D01*
X114109285Y-58764285D01*
X114252142Y-58550000D01*
X114323571Y-58335714D01*
X114323571Y-58192857D01*
X114252142Y-58050000D01*
X114109285Y-57978571D01*
X114037857Y-57978571D01*
X113895000Y-58050000D01*
X113823571Y-58192857D01*
X113823571Y-58264285D01*
X113895000Y-58407142D01*
X113966428Y-58478571D01*
X114395000Y-58764285D01*
X114466428Y-58835714D01*
X114537857Y-58978571D01*
X114537857Y-59192857D01*
X114466428Y-59335714D01*
X114395000Y-59407142D01*
X114252142Y-59478571D01*
X114037857Y-59478571D01*
X113895000Y-59407142D01*
X113823571Y-59335714D01*
X113609285Y-59050000D01*
X113537857Y-58835714D01*
X113537857Y-58692857D01*
X110823571Y-59478571D02*
X111537857Y-59478571D01*
X111537857Y-57978571D01*
X109680714Y-59478571D02*
X109680714Y-58692857D01*
X109752142Y-58550000D01*
X109895000Y-58478571D01*
X110180714Y-58478571D01*
X110323571Y-58550000D01*
X109680714Y-59407142D02*
X109823571Y-59478571D01*
X110180714Y-59478571D01*
X110323571Y-59407142D01*
X110395000Y-59264285D01*
X110395000Y-59121428D01*
X110323571Y-58978571D01*
X110180714Y-58907142D01*
X109823571Y-58907142D01*
X109680714Y-58835714D01*
X108966428Y-59478571D02*
X108966428Y-58478571D01*
X108966428Y-58764285D02*
X108895000Y-58621428D01*
X108823571Y-58550000D01*
X108680714Y-58478571D01*
X108537857Y-58478571D01*
X108037857Y-59478571D02*
X108037857Y-58478571D01*
X108037857Y-57978571D02*
X108109285Y-58050000D01*
X108037857Y-58121428D01*
X107966428Y-58050000D01*
X108037857Y-57978571D01*
X108037857Y-58121428D01*
X107395000Y-59407142D02*
X107252142Y-59478571D01*
X106966428Y-59478571D01*
X106823571Y-59407142D01*
X106752142Y-59264285D01*
X106752142Y-59192857D01*
X106823571Y-59050000D01*
X106966428Y-58978571D01*
X107180714Y-58978571D01*
X107323571Y-58907142D01*
X107395000Y-58764285D01*
X107395000Y-58692857D01*
X107323571Y-58550000D01*
X107180714Y-58478571D01*
X106966428Y-58478571D01*
X106823571Y-58550000D01*
X106180714Y-59407142D02*
X106037857Y-59478571D01*
X105752142Y-59478571D01*
X105609285Y-59407142D01*
X105537857Y-59264285D01*
X105537857Y-59192857D01*
X105609285Y-59050000D01*
X105752142Y-58978571D01*
X105966428Y-58978571D01*
X106109285Y-58907142D01*
X106180714Y-58764285D01*
X106180714Y-58692857D01*
X106109285Y-58550000D01*
X105966428Y-58478571D01*
X105752142Y-58478571D01*
X105609285Y-58550000D01*
X104252142Y-59478571D02*
X104252142Y-58692857D01*
X104323571Y-58550000D01*
X104466428Y-58478571D01*
X104752142Y-58478571D01*
X104895000Y-58550000D01*
X104252142Y-59407142D02*
X104395000Y-59478571D01*
X104752142Y-59478571D01*
X104895000Y-59407142D01*
X104966428Y-59264285D01*
X104966428Y-59121428D01*
X104895000Y-58978571D01*
X104752142Y-58907142D01*
X104395000Y-58907142D01*
X104252142Y-58835714D01*
X101895000Y-58692857D02*
X102395000Y-58692857D01*
X102395000Y-59478571D02*
X102395000Y-57978571D01*
X101680714Y-57978571D01*
X100895000Y-59478571D02*
X101037857Y-59407142D01*
X101109285Y-59335714D01*
X101180714Y-59192857D01*
X101180714Y-58764285D01*
X101109285Y-58621428D01*
X101037857Y-58550000D01*
X100895000Y-58478571D01*
X100680714Y-58478571D01*
X100537857Y-58550000D01*
X100466428Y-58621428D01*
X100395000Y-58764285D01*
X100395000Y-59192857D01*
X100466428Y-59335714D01*
X100537857Y-59407142D01*
X100680714Y-59478571D01*
X100895000Y-59478571D01*
X99752142Y-58478571D02*
X99752142Y-59478571D01*
X99752142Y-58621428D02*
X99680714Y-58550000D01*
X99537857Y-58478571D01*
X99323571Y-58478571D01*
X99180714Y-58550000D01*
X99109285Y-58692857D01*
X99109285Y-59478571D01*
X98609285Y-58478571D02*
X98037857Y-58478571D01*
X98395000Y-57978571D02*
X98395000Y-59264285D01*
X98323571Y-59407142D01*
X98180714Y-59478571D01*
X98037857Y-59478571D01*
X96966428Y-59407142D02*
X97109285Y-59478571D01*
X97395000Y-59478571D01*
X97537857Y-59407142D01*
X97609285Y-59264285D01*
X97609285Y-58692857D01*
X97537857Y-58550000D01*
X97395000Y-58478571D01*
X97109285Y-58478571D01*
X96966428Y-58550000D01*
X96895000Y-58692857D01*
X96895000Y-58835714D01*
X97609285Y-58978571D01*
X96323571Y-59407142D02*
X96180714Y-59478571D01*
X95895000Y-59478571D01*
X95752142Y-59407142D01*
X95680714Y-59264285D01*
X95680714Y-59192857D01*
X95752142Y-59050000D01*
X95895000Y-58978571D01*
X96109285Y-58978571D01*
X96252142Y-58907142D01*
X96323571Y-58764285D01*
X96323571Y-58692857D01*
X96252142Y-58550000D01*
X96109285Y-58478571D01*
X95895000Y-58478571D01*
X95752142Y-58550000D01*
X125680714Y-62028571D02*
X125680714Y-60528571D01*
X124466428Y-61242857D02*
X124966428Y-61242857D01*
X124966428Y-62028571D02*
X124966428Y-60528571D01*
X124252142Y-60528571D01*
X123752142Y-61957142D02*
X123537857Y-62028571D01*
X123180714Y-62028571D01*
X123037857Y-61957142D01*
X122966428Y-61885714D01*
X122895000Y-61742857D01*
X122895000Y-61600000D01*
X122966428Y-61457142D01*
X123037857Y-61385714D01*
X123180714Y-61314285D01*
X123466428Y-61242857D01*
X123609285Y-61171428D01*
X123680714Y-61100000D01*
X123752142Y-60957142D01*
X123752142Y-60814285D01*
X123680714Y-60671428D01*
X123609285Y-60600000D01*
X123466428Y-60528571D01*
X123109285Y-60528571D01*
X122895000Y-60600000D01*
X122252142Y-62028571D02*
X122252142Y-60528571D01*
X121680714Y-60528571D01*
X121537857Y-60600000D01*
X121466428Y-60671428D01*
X121395000Y-60814285D01*
X121395000Y-61028571D01*
X121466428Y-61171428D01*
X121537857Y-61242857D01*
X121680714Y-61314285D01*
X122252142Y-61314285D01*
X119609285Y-61457142D02*
X118466428Y-61457142D01*
X115752142Y-61885714D02*
X115823571Y-61957142D01*
X116037857Y-62028571D01*
X116180714Y-62028571D01*
X116395000Y-61957142D01*
X116537857Y-61814285D01*
X116609285Y-61671428D01*
X116680714Y-61385714D01*
X116680714Y-61171428D01*
X116609285Y-60885714D01*
X116537857Y-60742857D01*
X116395000Y-60600000D01*
X116180714Y-60528571D01*
X116037857Y-60528571D01*
X115823571Y-60600000D01*
X115752142Y-60671428D01*
X114466428Y-62028571D02*
X114466428Y-61242857D01*
X114537857Y-61100000D01*
X114680714Y-61028571D01*
X114966428Y-61028571D01*
X115109285Y-61100000D01*
X114466428Y-61957142D02*
X114609285Y-62028571D01*
X114966428Y-62028571D01*
X115109285Y-61957142D01*
X115180714Y-61814285D01*
X115180714Y-61671428D01*
X115109285Y-61528571D01*
X114966428Y-61457142D01*
X114609285Y-61457142D01*
X114466428Y-61385714D01*
X115109285Y-60671428D02*
X114823571Y-60457142D01*
X114537857Y-60671428D01*
X113752142Y-62028571D02*
X113752142Y-61028571D01*
X113752142Y-61171428D02*
X113680714Y-61100000D01*
X113537857Y-61028571D01*
X113323571Y-61028571D01*
X113180714Y-61100000D01*
X113109285Y-61242857D01*
X113109285Y-62028571D01*
X113109285Y-61242857D02*
X113037857Y-61100000D01*
X112895000Y-61028571D01*
X112680714Y-61028571D01*
X112537857Y-61100000D01*
X112466428Y-61242857D01*
X112466428Y-62028571D01*
X111752142Y-61028571D02*
X111752142Y-62528571D01*
X111752142Y-61100000D02*
X111609285Y-61028571D01*
X111323571Y-61028571D01*
X111180714Y-61100000D01*
X111109285Y-61171428D01*
X111037857Y-61314285D01*
X111037857Y-61742857D01*
X111109285Y-61885714D01*
X111180714Y-61957142D01*
X111323571Y-62028571D01*
X111609285Y-62028571D01*
X111752142Y-61957142D01*
X109752142Y-61028571D02*
X109752142Y-62028571D01*
X110395000Y-61028571D02*
X110395000Y-61814285D01*
X110323571Y-61957142D01*
X110180714Y-62028571D01*
X109966428Y-62028571D01*
X109823571Y-61957142D01*
X109752142Y-61885714D01*
X109109285Y-61957142D02*
X108966428Y-62028571D01*
X108680714Y-62028571D01*
X108537857Y-61957142D01*
X108466428Y-61814285D01*
X108466428Y-61742857D01*
X108537857Y-61600000D01*
X108680714Y-61528571D01*
X108895000Y-61528571D01*
X109037857Y-61457142D01*
X109109285Y-61314285D01*
X109109285Y-61242857D01*
X109037857Y-61100000D01*
X108895000Y-61028571D01*
X108680714Y-61028571D01*
X108537857Y-61100000D01*
X106752142Y-61957142D02*
X106537857Y-62028571D01*
X106180714Y-62028571D01*
X106037857Y-61957142D01*
X105966428Y-61885714D01*
X105895000Y-61742857D01*
X105895000Y-61600000D01*
X105966428Y-61457142D01*
X106037857Y-61385714D01*
X106180714Y-61314285D01*
X106466428Y-61242857D01*
X106609285Y-61171428D01*
X106680714Y-61100000D01*
X106752142Y-60957142D01*
X106752142Y-60814285D01*
X106680714Y-60671428D01*
X106609285Y-60600000D01*
X106466428Y-60528571D01*
X106109285Y-60528571D01*
X105895000Y-60600000D01*
X104609285Y-62028571D02*
X104609285Y-61242857D01*
X104680714Y-61100000D01*
X104823571Y-61028571D01*
X105109285Y-61028571D01*
X105252142Y-61100000D01*
X104609285Y-61957142D02*
X104752142Y-62028571D01*
X105109285Y-62028571D01*
X105252142Y-61957142D01*
X105323571Y-61814285D01*
X105323571Y-61671428D01*
X105252142Y-61528571D01*
X105109285Y-61457142D01*
X104752142Y-61457142D01*
X104609285Y-61385714D01*
X105323571Y-60671428D02*
X105252142Y-60600000D01*
X105109285Y-60528571D01*
X104823571Y-60671428D01*
X104680714Y-60600000D01*
X104609285Y-60528571D01*
X103680714Y-62028571D02*
X103823571Y-61957142D01*
X103895000Y-61885714D01*
X103966428Y-61742857D01*
X103966428Y-61314285D01*
X103895000Y-61171428D01*
X103823571Y-61100000D01*
X103680714Y-61028571D01*
X103466428Y-61028571D01*
X103323571Y-61100000D01*
X103252142Y-61171428D01*
X103180714Y-61314285D01*
X103180714Y-61742857D01*
X103252142Y-61885714D01*
X103323571Y-61957142D01*
X103466428Y-62028571D01*
X103680714Y-62028571D01*
X101395000Y-62028571D02*
X101395000Y-60528571D01*
X100823571Y-60528571D01*
X100680714Y-60600000D01*
X100609285Y-60671428D01*
X100537857Y-60814285D01*
X100537857Y-61028571D01*
X100609285Y-61171428D01*
X100680714Y-61242857D01*
X100823571Y-61314285D01*
X101395000Y-61314285D01*
X99252142Y-62028571D02*
X99252142Y-61242857D01*
X99323571Y-61100000D01*
X99466428Y-61028571D01*
X99752142Y-61028571D01*
X99895000Y-61100000D01*
X99252142Y-61957142D02*
X99395000Y-62028571D01*
X99752142Y-62028571D01*
X99895000Y-61957142D01*
X99966428Y-61814285D01*
X99966428Y-61671428D01*
X99895000Y-61528571D01*
X99752142Y-61457142D01*
X99395000Y-61457142D01*
X99252142Y-61385714D01*
X97895000Y-61028571D02*
X97895000Y-62028571D01*
X98537857Y-61028571D02*
X98537857Y-61814285D01*
X98466428Y-61957142D01*
X98323571Y-62028571D01*
X98109285Y-62028571D01*
X97966428Y-61957142D01*
X97895000Y-61885714D01*
X96966428Y-62028571D02*
X97109285Y-61957142D01*
X97180714Y-61814285D01*
X97180714Y-60528571D01*
X96180714Y-62028571D02*
X96323571Y-61957142D01*
X96395000Y-61885714D01*
X96466428Y-61742857D01*
X96466428Y-61314285D01*
X96395000Y-61171428D01*
X96323571Y-61100000D01*
X96180714Y-61028571D01*
X95966428Y-61028571D01*
X95823571Y-61100000D01*
X95752142Y-61171428D01*
X95680714Y-61314285D01*
X95680714Y-61742857D01*
X95752142Y-61885714D01*
X95823571Y-61957142D01*
X95966428Y-62028571D01*
X96180714Y-62028571D01*
D14*
G36*
X144133231Y-121301631D02*
G01*
X144083733Y-121351128D01*
X144083733Y-122778738D01*
X144182728Y-122877733D01*
X144890998Y-122876587D01*
X145082634Y-122875849D01*
X145248232Y-122874317D01*
X145386400Y-122872027D01*
X145495746Y-122869014D01*
X145574881Y-122865313D01*
X145622412Y-122860958D01*
X145635435Y-122857928D01*
X145670449Y-122829035D01*
X145690468Y-122799011D01*
X145695507Y-122771216D01*
X145699785Y-122714526D01*
X145703311Y-122633284D01*
X145706093Y-122531836D01*
X145708139Y-122414526D01*
X145709459Y-122285699D01*
X145710060Y-122149700D01*
X145709950Y-122010872D01*
X145709139Y-121873561D01*
X145707633Y-121742111D01*
X145705442Y-121620867D01*
X145702574Y-121514174D01*
X145699038Y-121426376D01*
X145694841Y-121361817D01*
X145689991Y-121324843D01*
X145687628Y-121318399D01*
X145674299Y-121302563D01*
X145658770Y-121289471D01*
X145637898Y-121278862D01*
X145608536Y-121270477D01*
X145567540Y-121264054D01*
X145511764Y-121259333D01*
X145438062Y-121256053D01*
X145343289Y-121253954D01*
X145224300Y-121252775D01*
X145077949Y-121252255D01*
X144901090Y-121252133D01*
X144182728Y-121252133D01*
X144133231Y-121301631D01*
X144133231Y-121301631D01*
G37*
X144133231Y-121301631D02*
X144083733Y-121351128D01*
X144083733Y-122778738D01*
X144182728Y-122877733D01*
X144890998Y-122876587D01*
X145082634Y-122875849D01*
X145248232Y-122874317D01*
X145386400Y-122872027D01*
X145495746Y-122869014D01*
X145574881Y-122865313D01*
X145622412Y-122860958D01*
X145635435Y-122857928D01*
X145670449Y-122829035D01*
X145690468Y-122799011D01*
X145695507Y-122771216D01*
X145699785Y-122714526D01*
X145703311Y-122633284D01*
X145706093Y-122531836D01*
X145708139Y-122414526D01*
X145709459Y-122285699D01*
X145710060Y-122149700D01*
X145709950Y-122010872D01*
X145709139Y-121873561D01*
X145707633Y-121742111D01*
X145705442Y-121620867D01*
X145702574Y-121514174D01*
X145699038Y-121426376D01*
X145694841Y-121361817D01*
X145689991Y-121324843D01*
X145687628Y-121318399D01*
X145674299Y-121302563D01*
X145658770Y-121289471D01*
X145637898Y-121278862D01*
X145608536Y-121270477D01*
X145567540Y-121264054D01*
X145511764Y-121259333D01*
X145438062Y-121256053D01*
X145343289Y-121253954D01*
X145224300Y-121252775D01*
X145077949Y-121252255D01*
X144901090Y-121252133D01*
X144182728Y-121252133D01*
X144133231Y-121301631D01*
G36*
X142175444Y-121293000D02*
G01*
X142127933Y-121333868D01*
X142127933Y-122795999D01*
X142222955Y-122877733D01*
X142937444Y-122877218D01*
X143145304Y-122876621D01*
X143319326Y-122875152D01*
X143459531Y-122872812D01*
X143565935Y-122869600D01*
X143638559Y-122865515D01*
X143677420Y-122860557D01*
X143683153Y-122858556D01*
X143702063Y-122845768D01*
X143717694Y-122829334D01*
X143730357Y-122806136D01*
X143740362Y-122773056D01*
X143748019Y-122726975D01*
X143753637Y-122664776D01*
X143757526Y-122583339D01*
X143759996Y-122479548D01*
X143761356Y-122350283D01*
X143761917Y-122192427D01*
X143762000Y-122064933D01*
X143761813Y-121885238D01*
X143761039Y-121736303D01*
X143759357Y-121615022D01*
X143756444Y-121518291D01*
X143751982Y-121443005D01*
X143745648Y-121386056D01*
X143737122Y-121344341D01*
X143726082Y-121314754D01*
X143712208Y-121294189D01*
X143695179Y-121279541D01*
X143679880Y-121270429D01*
X143652859Y-121265140D01*
X143593125Y-121260758D01*
X143500467Y-121257279D01*
X143374673Y-121254698D01*
X143215533Y-121253009D01*
X143022835Y-121252207D01*
X142934324Y-121252133D01*
X142222955Y-121252133D01*
X142175444Y-121293000D01*
X142175444Y-121293000D01*
G37*
X142175444Y-121293000D02*
X142127933Y-121333868D01*
X142127933Y-122795999D01*
X142222955Y-122877733D01*
X142937444Y-122877218D01*
X143145304Y-122876621D01*
X143319326Y-122875152D01*
X143459531Y-122872812D01*
X143565935Y-122869600D01*
X143638559Y-122865515D01*
X143677420Y-122860557D01*
X143683153Y-122858556D01*
X143702063Y-122845768D01*
X143717694Y-122829334D01*
X143730357Y-122806136D01*
X143740362Y-122773056D01*
X143748019Y-122726975D01*
X143753637Y-122664776D01*
X143757526Y-122583339D01*
X143759996Y-122479548D01*
X143761356Y-122350283D01*
X143761917Y-122192427D01*
X143762000Y-122064933D01*
X143761813Y-121885238D01*
X143761039Y-121736303D01*
X143759357Y-121615022D01*
X143756444Y-121518291D01*
X143751982Y-121443005D01*
X143745648Y-121386056D01*
X143737122Y-121344341D01*
X143726082Y-121314754D01*
X143712208Y-121294189D01*
X143695179Y-121279541D01*
X143679880Y-121270429D01*
X143652859Y-121265140D01*
X143593125Y-121260758D01*
X143500467Y-121257279D01*
X143374673Y-121254698D01*
X143215533Y-121253009D01*
X143022835Y-121252207D01*
X142934324Y-121252133D01*
X142222955Y-121252133D01*
X142175444Y-121293000D01*
G36*
X144133231Y-119337364D02*
G01*
X144083733Y-119386861D01*
X144083733Y-120809268D01*
X144127572Y-120861367D01*
X144171411Y-120913467D01*
X145626284Y-120913467D01*
X145709334Y-120823855D01*
X145709334Y-119386861D01*
X145659836Y-119337364D01*
X145610339Y-119287867D01*
X144182728Y-119287867D01*
X144133231Y-119337364D01*
X144133231Y-119337364D01*
G37*
X144133231Y-119337364D02*
X144083733Y-119386861D01*
X144083733Y-120809268D01*
X144127572Y-120861367D01*
X144171411Y-120913467D01*
X145626284Y-120913467D01*
X145709334Y-120823855D01*
X145709334Y-119386861D01*
X145659836Y-119337364D01*
X145610339Y-119287867D01*
X144182728Y-119287867D01*
X144133231Y-119337364D01*
G36*
X142781012Y-119288264D02*
G01*
X142633103Y-119289407D01*
X142502255Y-119291222D01*
X142391770Y-119293635D01*
X142304954Y-119296573D01*
X142245110Y-119299963D01*
X142215541Y-119303731D01*
X142214514Y-119304072D01*
X142191957Y-119313544D01*
X142173239Y-119325266D01*
X142158026Y-119342243D01*
X142145984Y-119367480D01*
X142136781Y-119403981D01*
X142130083Y-119454750D01*
X142125556Y-119522793D01*
X142122869Y-119611114D01*
X142121687Y-119722716D01*
X142121677Y-119860606D01*
X142122506Y-120027787D01*
X142123161Y-120127746D01*
X142127933Y-120831758D01*
X142175444Y-120872612D01*
X142222955Y-120913467D01*
X142937444Y-120912952D01*
X143145304Y-120912354D01*
X143319326Y-120910886D01*
X143459531Y-120908545D01*
X143565935Y-120905333D01*
X143638559Y-120901248D01*
X143677420Y-120896290D01*
X143683153Y-120894289D01*
X143702100Y-120881466D01*
X143717755Y-120864975D01*
X143730431Y-120841689D01*
X143740439Y-120808484D01*
X143748091Y-120762235D01*
X143753699Y-120699816D01*
X143757575Y-120618103D01*
X143760030Y-120513969D01*
X143761376Y-120384291D01*
X143761924Y-120225943D01*
X143762000Y-120103737D01*
X143761475Y-119900980D01*
X143759903Y-119731741D01*
X143757283Y-119596085D01*
X143753619Y-119494080D01*
X143748912Y-119425792D01*
X143743231Y-119391479D01*
X143734035Y-119366992D01*
X143723042Y-119346702D01*
X143707203Y-119330216D01*
X143683469Y-119317138D01*
X143648789Y-119307074D01*
X143600115Y-119299630D01*
X143534398Y-119294410D01*
X143448587Y-119291020D01*
X143339634Y-119289065D01*
X143204488Y-119288150D01*
X143040102Y-119287882D01*
X142942677Y-119287867D01*
X142781012Y-119288264D01*
X142781012Y-119288264D01*
G37*
X142781012Y-119288264D02*
X142633103Y-119289407D01*
X142502255Y-119291222D01*
X142391770Y-119293635D01*
X142304954Y-119296573D01*
X142245110Y-119299963D01*
X142215541Y-119303731D01*
X142214514Y-119304072D01*
X142191957Y-119313544D01*
X142173239Y-119325266D01*
X142158026Y-119342243D01*
X142145984Y-119367480D01*
X142136781Y-119403981D01*
X142130083Y-119454750D01*
X142125556Y-119522793D01*
X142122869Y-119611114D01*
X142121687Y-119722716D01*
X142121677Y-119860606D01*
X142122506Y-120027787D01*
X142123161Y-120127746D01*
X142127933Y-120831758D01*
X142175444Y-120872612D01*
X142222955Y-120913467D01*
X142937444Y-120912952D01*
X143145304Y-120912354D01*
X143319326Y-120910886D01*
X143459531Y-120908545D01*
X143565935Y-120905333D01*
X143638559Y-120901248D01*
X143677420Y-120896290D01*
X143683153Y-120894289D01*
X143702100Y-120881466D01*
X143717755Y-120864975D01*
X143730431Y-120841689D01*
X143740439Y-120808484D01*
X143748091Y-120762235D01*
X143753699Y-120699816D01*
X143757575Y-120618103D01*
X143760030Y-120513969D01*
X143761376Y-120384291D01*
X143761924Y-120225943D01*
X143762000Y-120103737D01*
X143761475Y-119900980D01*
X143759903Y-119731741D01*
X143757283Y-119596085D01*
X143753619Y-119494080D01*
X143748912Y-119425792D01*
X143743231Y-119391479D01*
X143734035Y-119366992D01*
X143723042Y-119346702D01*
X143707203Y-119330216D01*
X143683469Y-119317138D01*
X143648789Y-119307074D01*
X143600115Y-119299630D01*
X143534398Y-119294410D01*
X143448587Y-119291020D01*
X143339634Y-119289065D01*
X143204488Y-119288150D01*
X143040102Y-119287882D01*
X142942677Y-119287867D01*
X142781012Y-119288264D01*
G36*
X140529288Y-119291144D02*
G01*
X140427517Y-119292815D01*
X140350602Y-119295467D01*
X140296292Y-119299146D01*
X140262338Y-119303900D01*
X140251080Y-119307169D01*
X140228241Y-119317801D01*
X140209345Y-119331098D01*
X140194020Y-119350148D01*
X140181893Y-119378037D01*
X140172591Y-119417854D01*
X140165740Y-119472686D01*
X140160968Y-119545620D01*
X140157901Y-119639745D01*
X140156166Y-119758146D01*
X140155390Y-119903913D01*
X140155201Y-120080132D01*
X140155200Y-120100667D01*
X140155387Y-120280362D01*
X140156161Y-120429297D01*
X140157844Y-120550577D01*
X140160756Y-120647308D01*
X140165218Y-120722595D01*
X140171552Y-120779543D01*
X140180079Y-120821258D01*
X140191118Y-120850846D01*
X140204992Y-120871410D01*
X140222021Y-120886058D01*
X140237320Y-120895170D01*
X140264341Y-120900460D01*
X140324075Y-120904841D01*
X140416733Y-120908320D01*
X140542527Y-120910902D01*
X140701667Y-120912591D01*
X140894365Y-120913393D01*
X140982876Y-120913467D01*
X141694245Y-120913467D01*
X141741756Y-120872599D01*
X141789267Y-120831732D01*
X141789267Y-119373474D01*
X141750711Y-119334904D01*
X141712155Y-119296333D01*
X141006241Y-119291552D01*
X140816399Y-119290559D01*
X140658165Y-119290408D01*
X140529288Y-119291144D01*
X140529288Y-119291144D01*
G37*
X140529288Y-119291144D02*
X140427517Y-119292815D01*
X140350602Y-119295467D01*
X140296292Y-119299146D01*
X140262338Y-119303900D01*
X140251080Y-119307169D01*
X140228241Y-119317801D01*
X140209345Y-119331098D01*
X140194020Y-119350148D01*
X140181893Y-119378037D01*
X140172591Y-119417854D01*
X140165740Y-119472686D01*
X140160968Y-119545620D01*
X140157901Y-119639745D01*
X140156166Y-119758146D01*
X140155390Y-119903913D01*
X140155201Y-120080132D01*
X140155200Y-120100667D01*
X140155387Y-120280362D01*
X140156161Y-120429297D01*
X140157844Y-120550577D01*
X140160756Y-120647308D01*
X140165218Y-120722595D01*
X140171552Y-120779543D01*
X140180079Y-120821258D01*
X140191118Y-120850846D01*
X140204992Y-120871410D01*
X140222021Y-120886058D01*
X140237320Y-120895170D01*
X140264341Y-120900460D01*
X140324075Y-120904841D01*
X140416733Y-120908320D01*
X140542527Y-120910902D01*
X140701667Y-120912591D01*
X140894365Y-120913393D01*
X140982876Y-120913467D01*
X141694245Y-120913467D01*
X141741756Y-120872599D01*
X141789267Y-120831732D01*
X141789267Y-119373474D01*
X141750711Y-119334904D01*
X141712155Y-119296333D01*
X141006241Y-119291552D01*
X140816399Y-119290559D01*
X140658165Y-119290408D01*
X140529288Y-119291144D01*
G36*
X144124601Y-117379577D02*
G01*
X144083733Y-117427088D01*
X144083733Y-118129718D01*
X144083815Y-118312582D01*
X144084313Y-118464591D01*
X144085611Y-118588759D01*
X144088089Y-118688098D01*
X144092130Y-118765620D01*
X144098115Y-118824338D01*
X144106425Y-118867265D01*
X144117444Y-118897413D01*
X144131552Y-118917794D01*
X144149131Y-118931421D01*
X144170563Y-118941307D01*
X144187346Y-118947364D01*
X144220773Y-118952970D01*
X144283025Y-118957614D01*
X144369502Y-118961315D01*
X144475602Y-118964092D01*
X144596725Y-118965963D01*
X144728270Y-118966947D01*
X144865637Y-118967065D01*
X145004224Y-118966334D01*
X145139431Y-118964774D01*
X145266657Y-118962404D01*
X145381301Y-118959242D01*
X145478763Y-118955308D01*
X145554441Y-118950621D01*
X145603736Y-118945200D01*
X145619100Y-118941448D01*
X145661663Y-118915504D01*
X145690485Y-118885009D01*
X145691067Y-118883958D01*
X145696357Y-118856784D01*
X145700739Y-118796626D01*
X145704217Y-118703322D01*
X145706795Y-118576710D01*
X145708477Y-118416629D01*
X145709266Y-118222917D01*
X145709334Y-118138457D01*
X145709334Y-117427088D01*
X145668466Y-117379577D01*
X145627599Y-117332067D01*
X144165468Y-117332067D01*
X144124601Y-117379577D01*
X144124601Y-117379577D01*
G37*
X144124601Y-117379577D02*
X144083733Y-117427088D01*
X144083733Y-118129718D01*
X144083815Y-118312582D01*
X144084313Y-118464591D01*
X144085611Y-118588759D01*
X144088089Y-118688098D01*
X144092130Y-118765620D01*
X144098115Y-118824338D01*
X144106425Y-118867265D01*
X144117444Y-118897413D01*
X144131552Y-118917794D01*
X144149131Y-118931421D01*
X144170563Y-118941307D01*
X144187346Y-118947364D01*
X144220773Y-118952970D01*
X144283025Y-118957614D01*
X144369502Y-118961315D01*
X144475602Y-118964092D01*
X144596725Y-118965963D01*
X144728270Y-118966947D01*
X144865637Y-118967065D01*
X145004224Y-118966334D01*
X145139431Y-118964774D01*
X145266657Y-118962404D01*
X145381301Y-118959242D01*
X145478763Y-118955308D01*
X145554441Y-118950621D01*
X145603736Y-118945200D01*
X145619100Y-118941448D01*
X145661663Y-118915504D01*
X145690485Y-118885009D01*
X145691067Y-118883958D01*
X145696357Y-118856784D01*
X145700739Y-118796626D01*
X145704217Y-118703322D01*
X145706795Y-118576710D01*
X145708477Y-118416629D01*
X145709266Y-118222917D01*
X145709334Y-118138457D01*
X145709334Y-117427088D01*
X145668466Y-117379577D01*
X145627599Y-117332067D01*
X144165468Y-117332067D01*
X144124601Y-117379577D01*
G36*
X142499472Y-117326057D02*
G01*
X142400353Y-117327821D01*
X142322949Y-117331252D01*
X142264222Y-117336695D01*
X142221135Y-117344498D01*
X142190651Y-117355006D01*
X142169731Y-117368567D01*
X142155339Y-117385527D01*
X142144436Y-117406233D01*
X142138232Y-117420778D01*
X142132876Y-117445094D01*
X142128637Y-117490752D01*
X142125475Y-117559743D01*
X142123347Y-117654059D01*
X142122216Y-117775694D01*
X142122040Y-117926637D01*
X142122778Y-118108882D01*
X142123146Y-118166274D01*
X142127933Y-118863793D01*
X142221807Y-118957667D01*
X142911470Y-118959863D01*
X143062284Y-118960165D01*
X143203468Y-118960106D01*
X143331220Y-118959711D01*
X143441734Y-118959009D01*
X143531209Y-118958026D01*
X143595839Y-118956789D01*
X143631822Y-118955325D01*
X143637129Y-118954728D01*
X143673524Y-118937528D01*
X143711974Y-118906030D01*
X143713329Y-118904605D01*
X143753533Y-118861815D01*
X143753533Y-117425980D01*
X143706597Y-117379023D01*
X143659660Y-117332067D01*
X142957497Y-117327294D01*
X142775007Y-117326140D01*
X142623345Y-117325612D01*
X142499472Y-117326057D01*
X142499472Y-117326057D01*
G37*
X142499472Y-117326057D02*
X142400353Y-117327821D01*
X142322949Y-117331252D01*
X142264222Y-117336695D01*
X142221135Y-117344498D01*
X142190651Y-117355006D01*
X142169731Y-117368567D01*
X142155339Y-117385527D01*
X142144436Y-117406233D01*
X142138232Y-117420778D01*
X142132876Y-117445094D01*
X142128637Y-117490752D01*
X142125475Y-117559743D01*
X142123347Y-117654059D01*
X142122216Y-117775694D01*
X142122040Y-117926637D01*
X142122778Y-118108882D01*
X142123146Y-118166274D01*
X142127933Y-118863793D01*
X142221807Y-118957667D01*
X142911470Y-118959863D01*
X143062284Y-118960165D01*
X143203468Y-118960106D01*
X143331220Y-118959711D01*
X143441734Y-118959009D01*
X143531209Y-118958026D01*
X143595839Y-118956789D01*
X143631822Y-118955325D01*
X143637129Y-118954728D01*
X143673524Y-118937528D01*
X143711974Y-118906030D01*
X143713329Y-118904605D01*
X143753533Y-118861815D01*
X143753533Y-117425980D01*
X143706597Y-117379023D01*
X143659660Y-117332067D01*
X142957497Y-117327294D01*
X142775007Y-117326140D01*
X142623345Y-117325612D01*
X142499472Y-117326057D01*
G36*
X144732083Y-115307184D02*
G01*
X144567182Y-115352698D01*
X144417756Y-115426286D01*
X144286456Y-115526091D01*
X144175934Y-115650258D01*
X144088842Y-115796928D01*
X144049237Y-115894086D01*
X144009068Y-116057610D01*
X144000275Y-116218364D01*
X144020366Y-116373567D01*
X144066849Y-116520442D01*
X144137235Y-116656208D01*
X144229031Y-116778085D01*
X144339746Y-116883295D01*
X144466890Y-116969057D01*
X144607970Y-117032592D01*
X144760496Y-117071121D01*
X144921977Y-117081865D01*
X145089920Y-117062042D01*
X145095064Y-117060939D01*
X145250351Y-117010388D01*
X145394651Y-116930662D01*
X145523353Y-116825844D01*
X145631850Y-116700022D01*
X145715530Y-116557278D01*
X145745249Y-116484737D01*
X145771176Y-116384451D01*
X145786902Y-116266080D01*
X145791455Y-116144127D01*
X145783860Y-116033094D01*
X145777916Y-115998353D01*
X145728207Y-115838948D01*
X145650376Y-115694148D01*
X145548083Y-115566935D01*
X145424987Y-115460288D01*
X145284751Y-115377188D01*
X145131035Y-115320616D01*
X144967499Y-115293551D01*
X144909806Y-115291600D01*
X144732083Y-115307184D01*
X144732083Y-115307184D01*
G37*
X144732083Y-115307184D02*
X144567182Y-115352698D01*
X144417756Y-115426286D01*
X144286456Y-115526091D01*
X144175934Y-115650258D01*
X144088842Y-115796928D01*
X144049237Y-115894086D01*
X144009068Y-116057610D01*
X144000275Y-116218364D01*
X144020366Y-116373567D01*
X144066849Y-116520442D01*
X144137235Y-116656208D01*
X144229031Y-116778085D01*
X144339746Y-116883295D01*
X144466890Y-116969057D01*
X144607970Y-117032592D01*
X144760496Y-117071121D01*
X144921977Y-117081865D01*
X145089920Y-117062042D01*
X145095064Y-117060939D01*
X145250351Y-117010388D01*
X145394651Y-116930662D01*
X145523353Y-116825844D01*
X145631850Y-116700022D01*
X145715530Y-116557278D01*
X145745249Y-116484737D01*
X145771176Y-116384451D01*
X145786902Y-116266080D01*
X145791455Y-116144127D01*
X145783860Y-116033094D01*
X145777916Y-115998353D01*
X145728207Y-115838948D01*
X145650376Y-115694148D01*
X145548083Y-115566935D01*
X145424987Y-115460288D01*
X145284751Y-115377188D01*
X145131035Y-115320616D01*
X144967499Y-115293551D01*
X144909806Y-115291600D01*
X144732083Y-115307184D01*
G36*
X142174881Y-115414736D02*
G01*
X142127933Y-115461673D01*
X142123146Y-116159193D01*
X142122157Y-116350635D01*
X142122071Y-116510214D01*
X142122929Y-116639921D01*
X142124771Y-116741748D01*
X142127637Y-116817687D01*
X142131568Y-116869731D01*
X142136604Y-116899870D01*
X142138232Y-116904688D01*
X142148473Y-116927671D01*
X142160467Y-116946710D01*
X142177277Y-116962172D01*
X142201966Y-116974420D01*
X142237598Y-116983820D01*
X142287236Y-116990738D01*
X142353944Y-116995537D01*
X142440784Y-116998584D01*
X142550822Y-117000243D01*
X142687120Y-117000879D01*
X142852741Y-117000858D01*
X142944126Y-117000720D01*
X143141445Y-116999936D01*
X143308934Y-116998297D01*
X143445843Y-116995825D01*
X143551422Y-116992539D01*
X143624923Y-116988459D01*
X143665594Y-116983604D01*
X143672210Y-116981597D01*
X143693813Y-116969821D01*
X143711643Y-116955217D01*
X143726051Y-116934660D01*
X143737384Y-116905022D01*
X143745992Y-116863176D01*
X143752224Y-116805997D01*
X143756429Y-116730358D01*
X143758955Y-116633131D01*
X143760152Y-116511191D01*
X143760368Y-116361410D01*
X143759997Y-116194974D01*
X143759280Y-116047047D01*
X143758099Y-115908215D01*
X143756525Y-115782484D01*
X143754630Y-115673863D01*
X143752487Y-115586357D01*
X143750167Y-115523976D01*
X143747743Y-115490725D01*
X143747297Y-115488123D01*
X143726183Y-115443743D01*
X143689996Y-115404372D01*
X143688785Y-115403456D01*
X143676221Y-115394734D01*
X143661988Y-115387563D01*
X143642857Y-115381793D01*
X143615600Y-115377271D01*
X143576987Y-115373845D01*
X143523790Y-115371364D01*
X143452779Y-115369675D01*
X143360726Y-115368626D01*
X143244403Y-115368065D01*
X143100579Y-115367840D01*
X142931398Y-115367800D01*
X142221828Y-115367800D01*
X142174881Y-115414736D01*
X142174881Y-115414736D01*
G37*
X142174881Y-115414736D02*
X142127933Y-115461673D01*
X142123146Y-116159193D01*
X142122157Y-116350635D01*
X142122071Y-116510214D01*
X142122929Y-116639921D01*
X142124771Y-116741748D01*
X142127637Y-116817687D01*
X142131568Y-116869731D01*
X142136604Y-116899870D01*
X142138232Y-116904688D01*
X142148473Y-116927671D01*
X142160467Y-116946710D01*
X142177277Y-116962172D01*
X142201966Y-116974420D01*
X142237598Y-116983820D01*
X142287236Y-116990738D01*
X142353944Y-116995537D01*
X142440784Y-116998584D01*
X142550822Y-117000243D01*
X142687120Y-117000879D01*
X142852741Y-117000858D01*
X142944126Y-117000720D01*
X143141445Y-116999936D01*
X143308934Y-116998297D01*
X143445843Y-116995825D01*
X143551422Y-116992539D01*
X143624923Y-116988459D01*
X143665594Y-116983604D01*
X143672210Y-116981597D01*
X143693813Y-116969821D01*
X143711643Y-116955217D01*
X143726051Y-116934660D01*
X143737384Y-116905022D01*
X143745992Y-116863176D01*
X143752224Y-116805997D01*
X143756429Y-116730358D01*
X143758955Y-116633131D01*
X143760152Y-116511191D01*
X143760368Y-116361410D01*
X143759997Y-116194974D01*
X143759280Y-116047047D01*
X143758099Y-115908215D01*
X143756525Y-115782484D01*
X143754630Y-115673863D01*
X143752487Y-115586357D01*
X143750167Y-115523976D01*
X143747743Y-115490725D01*
X143747297Y-115488123D01*
X143726183Y-115443743D01*
X143689996Y-115404372D01*
X143688785Y-115403456D01*
X143676221Y-115394734D01*
X143661988Y-115387563D01*
X143642857Y-115381793D01*
X143615600Y-115377271D01*
X143576987Y-115373845D01*
X143523790Y-115371364D01*
X143452779Y-115369675D01*
X143360726Y-115368626D01*
X143244403Y-115368065D01*
X143100579Y-115367840D01*
X142931398Y-115367800D01*
X142221828Y-115367800D01*
X142174881Y-115414736D01*
G36*
X140652211Y-115362132D02*
G01*
X140512448Y-115363703D01*
X140405537Y-115366546D01*
X140331804Y-115370655D01*
X140291579Y-115376025D01*
X140290932Y-115376195D01*
X140261203Y-115384307D01*
X140236505Y-115393190D01*
X140216371Y-115405837D01*
X140200334Y-115425243D01*
X140187930Y-115454401D01*
X140178692Y-115496306D01*
X140172155Y-115553950D01*
X140167852Y-115630327D01*
X140165318Y-115728432D01*
X140164086Y-115851258D01*
X140163691Y-116001798D01*
X140163667Y-116183047D01*
X140163667Y-116903045D01*
X140218967Y-116952456D01*
X140274268Y-117001867D01*
X140972501Y-117001617D01*
X141158262Y-117001281D01*
X141312595Y-117000370D01*
X141437932Y-116998813D01*
X141536707Y-116996540D01*
X141611353Y-116993480D01*
X141664305Y-116989563D01*
X141697996Y-116984717D01*
X141712733Y-116980116D01*
X141732752Y-116969165D01*
X141749331Y-116956363D01*
X141762796Y-116938624D01*
X141773472Y-116912866D01*
X141781685Y-116876003D01*
X141787760Y-116824950D01*
X141792022Y-116756625D01*
X141794796Y-116667941D01*
X141796409Y-116555815D01*
X141797185Y-116417162D01*
X141797450Y-116248897D01*
X141797484Y-116176634D01*
X141797733Y-115478401D01*
X141748339Y-115423100D01*
X141698944Y-115367800D01*
X141028982Y-115362830D01*
X140824499Y-115361839D01*
X140652211Y-115362132D01*
X140652211Y-115362132D01*
G37*
X140652211Y-115362132D02*
X140512448Y-115363703D01*
X140405537Y-115366546D01*
X140331804Y-115370655D01*
X140291579Y-115376025D01*
X140290932Y-115376195D01*
X140261203Y-115384307D01*
X140236505Y-115393190D01*
X140216371Y-115405837D01*
X140200334Y-115425243D01*
X140187930Y-115454401D01*
X140178692Y-115496306D01*
X140172155Y-115553950D01*
X140167852Y-115630327D01*
X140165318Y-115728432D01*
X140164086Y-115851258D01*
X140163691Y-116001798D01*
X140163667Y-116183047D01*
X140163667Y-116903045D01*
X140218967Y-116952456D01*
X140274268Y-117001867D01*
X140972501Y-117001617D01*
X141158262Y-117001281D01*
X141312595Y-117000370D01*
X141437932Y-116998813D01*
X141536707Y-116996540D01*
X141611353Y-116993480D01*
X141664305Y-116989563D01*
X141697996Y-116984717D01*
X141712733Y-116980116D01*
X141732752Y-116969165D01*
X141749331Y-116956363D01*
X141762796Y-116938624D01*
X141773472Y-116912866D01*
X141781685Y-116876003D01*
X141787760Y-116824950D01*
X141792022Y-116756625D01*
X141794796Y-116667941D01*
X141796409Y-116555815D01*
X141797185Y-116417162D01*
X141797450Y-116248897D01*
X141797484Y-116176634D01*
X141797733Y-115478401D01*
X141748339Y-115423100D01*
X141698944Y-115367800D01*
X141028982Y-115362830D01*
X140824499Y-115361839D01*
X140652211Y-115362132D01*
D15*
X156850000Y-132230000D02*
X154310000Y-134770000D01*
X168280000Y-132230000D02*
X156850000Y-132230000D01*
X169930000Y-130580000D02*
X168280000Y-132230000D01*
X169930000Y-65930000D02*
X169930000Y-130580000D01*
X160400000Y-65930000D02*
X169930000Y-65930000D01*
X160400000Y-59580000D02*
X160400000Y-65930000D01*
X148720000Y-59580000D02*
X160400000Y-59580000D01*
X148720000Y-65930000D02*
X148720000Y-59580000D01*
X128650000Y-65930000D02*
X148720000Y-65930000D01*
X128650000Y-64030000D02*
X128650000Y-65930000D01*
X119510000Y-64030000D02*
X128650000Y-64030000D01*
X119510000Y-65930000D02*
X119510000Y-64030000D01*
X116330000Y-65930000D02*
X119510000Y-65930000D01*
X116330000Y-132230000D02*
X116330000Y-65930000D01*
X119000000Y-132230000D02*
X116330000Y-132230000D01*
X121540000Y-134770000D02*
X119000000Y-132230000D01*
X154310000Y-134770000D02*
X121540000Y-134770000D01*
D10*
X132730000Y-105870000D02*
X132730000Y-106500000D01*
X132730000Y-97410000D02*
X132730000Y-99870000D01*
X154290000Y-105870000D02*
X154290000Y-106500000D01*
X154290000Y-97410000D02*
X154290000Y-99870000D01*
X134184756Y-110458169D02*
G75*
G03X137510000Y-111420000I2015244J738169D01*
G01*
X132730000Y-106500000D02*
X134170000Y-110450000D01*
X134810000Y-95330000D02*
X132730000Y-97410000D01*
X134810000Y-95330000D02*
X152210000Y-95330000D01*
X152210000Y-95330000D02*
X154290000Y-97410000D01*
X154290000Y-106500000D02*
X152850000Y-110450000D01*
X149513354Y-111436530D02*
G75*
G03X152850000Y-110450000I1306646J1716530D01*
G01*
X149514601Y-111423536D02*
G75*
G03X137510000Y-111420000I-6004601J-7806464D01*
G01*
D14*
G36*
X174550737Y-122220421D02*
G01*
X174550737Y-127006316D01*
X173024509Y-127006316D01*
X173024509Y-126526678D01*
X173218049Y-126265181D01*
X173303459Y-126149544D01*
X173386525Y-126036667D01*
X173456860Y-125940689D01*
X173498576Y-125883368D01*
X173537993Y-125828850D01*
X173603427Y-125738344D01*
X173689568Y-125619198D01*
X173791103Y-125478759D01*
X173902721Y-125324373D01*
X173998734Y-125191572D01*
X174411904Y-124620092D01*
X174260741Y-124413446D01*
X174181731Y-124305291D01*
X174084759Y-124172338D01*
X173983290Y-124033054D01*
X173907445Y-123928821D01*
X173730768Y-123685779D01*
X173582782Y-123482029D01*
X173460661Y-123313664D01*
X173361582Y-123176777D01*
X173282720Y-123067461D01*
X173221251Y-122981806D01*
X173174351Y-122915907D01*
X173140035Y-122867061D01*
X173088583Y-122798935D01*
X173046533Y-122753437D01*
X173028011Y-122741789D01*
X173007241Y-122762695D01*
X172958808Y-122822255D01*
X172886300Y-122915731D01*
X172793307Y-123038385D01*
X172683416Y-123185479D01*
X172560215Y-123352276D01*
X172427292Y-123534037D01*
X172410398Y-123557263D01*
X172272763Y-123746573D01*
X172141564Y-123926997D01*
X172020958Y-124092819D01*
X171915102Y-124238325D01*
X171828156Y-124357798D01*
X171764277Y-124445523D01*
X171727622Y-124495786D01*
X171727332Y-124496183D01*
X171637085Y-124619629D01*
X171722841Y-124736814D01*
X171767625Y-124798348D01*
X171836247Y-124893046D01*
X171921304Y-125010677D01*
X172015394Y-125141005D01*
X172078347Y-125228316D01*
X172263559Y-125485125D01*
X172421612Y-125703825D01*
X172556431Y-125889816D01*
X172671939Y-126048500D01*
X172772061Y-126185280D01*
X172860720Y-126305556D01*
X172870418Y-126318655D01*
X173024509Y-126526678D01*
X173024509Y-127006316D01*
X171502737Y-127006316D01*
X171502737Y-122220421D01*
X174550737Y-122220421D01*
X174550737Y-122220421D01*
G37*
X174550737Y-122220421D02*
X174550737Y-127006316D01*
X173024509Y-127006316D01*
X173024509Y-126526678D01*
X173218049Y-126265181D01*
X173303459Y-126149544D01*
X173386525Y-126036667D01*
X173456860Y-125940689D01*
X173498576Y-125883368D01*
X173537993Y-125828850D01*
X173603427Y-125738344D01*
X173689568Y-125619198D01*
X173791103Y-125478759D01*
X173902721Y-125324373D01*
X173998734Y-125191572D01*
X174411904Y-124620092D01*
X174260741Y-124413446D01*
X174181731Y-124305291D01*
X174084759Y-124172338D01*
X173983290Y-124033054D01*
X173907445Y-123928821D01*
X173730768Y-123685779D01*
X173582782Y-123482029D01*
X173460661Y-123313664D01*
X173361582Y-123176777D01*
X173282720Y-123067461D01*
X173221251Y-122981806D01*
X173174351Y-122915907D01*
X173140035Y-122867061D01*
X173088583Y-122798935D01*
X173046533Y-122753437D01*
X173028011Y-122741789D01*
X173007241Y-122762695D01*
X172958808Y-122822255D01*
X172886300Y-122915731D01*
X172793307Y-123038385D01*
X172683416Y-123185479D01*
X172560215Y-123352276D01*
X172427292Y-123534037D01*
X172410398Y-123557263D01*
X172272763Y-123746573D01*
X172141564Y-123926997D01*
X172020958Y-124092819D01*
X171915102Y-124238325D01*
X171828156Y-124357798D01*
X171764277Y-124445523D01*
X171727622Y-124495786D01*
X171727332Y-124496183D01*
X171637085Y-124619629D01*
X171722841Y-124736814D01*
X171767625Y-124798348D01*
X171836247Y-124893046D01*
X171921304Y-125010677D01*
X172015394Y-125141005D01*
X172078347Y-125228316D01*
X172263559Y-125485125D01*
X172421612Y-125703825D01*
X172556431Y-125889816D01*
X172671939Y-126048500D01*
X172772061Y-126185280D01*
X172860720Y-126305556D01*
X172870418Y-126318655D01*
X173024509Y-126526678D01*
X173024509Y-127006316D01*
X171502737Y-127006316D01*
X171502737Y-122220421D01*
X174550737Y-122220421D01*
G36*
X172575217Y-125294648D02*
G01*
X172614996Y-125179721D01*
X172670733Y-125043826D01*
X172738718Y-124895342D01*
X172815244Y-124742648D01*
X172896600Y-124594124D01*
X172979077Y-124458150D01*
X173005374Y-124418253D01*
X173071052Y-124327305D01*
X173151426Y-124225510D01*
X173238874Y-124121398D01*
X173325772Y-124023502D01*
X173404498Y-123940353D01*
X173467430Y-123880484D01*
X173506945Y-123852425D01*
X173511836Y-123851368D01*
X173555675Y-123871777D01*
X173618807Y-123925492D01*
X173690981Y-124001248D01*
X173761948Y-124087781D01*
X173821458Y-124173825D01*
X173847014Y-124219739D01*
X173900599Y-124372592D01*
X173928916Y-124548669D01*
X173930955Y-124728230D01*
X173905707Y-124891536D01*
X173884637Y-124955801D01*
X173825357Y-125075590D01*
X173746880Y-125198654D01*
X173665717Y-125299460D01*
X173656022Y-125309406D01*
X173545027Y-125394443D01*
X173400379Y-125469661D01*
X173241864Y-125527098D01*
X173089272Y-125558788D01*
X173027171Y-125562526D01*
X172952860Y-125555095D01*
X172856652Y-125535714D01*
X172753771Y-125508748D01*
X172659443Y-125478563D01*
X172588894Y-125449528D01*
X172558371Y-125428080D01*
X172555106Y-125380228D01*
X172575217Y-125294648D01*
X172575217Y-125294648D01*
G37*
X172575217Y-125294648D02*
X172614996Y-125179721D01*
X172670733Y-125043826D01*
X172738718Y-124895342D01*
X172815244Y-124742648D01*
X172896600Y-124594124D01*
X172979077Y-124458150D01*
X173005374Y-124418253D01*
X173071052Y-124327305D01*
X173151426Y-124225510D01*
X173238874Y-124121398D01*
X173325772Y-124023502D01*
X173404498Y-123940353D01*
X173467430Y-123880484D01*
X173506945Y-123852425D01*
X173511836Y-123851368D01*
X173555675Y-123871777D01*
X173618807Y-123925492D01*
X173690981Y-124001248D01*
X173761948Y-124087781D01*
X173821458Y-124173825D01*
X173847014Y-124219739D01*
X173900599Y-124372592D01*
X173928916Y-124548669D01*
X173930955Y-124728230D01*
X173905707Y-124891536D01*
X173884637Y-124955801D01*
X173825357Y-125075590D01*
X173746880Y-125198654D01*
X173665717Y-125299460D01*
X173656022Y-125309406D01*
X173545027Y-125394443D01*
X173400379Y-125469661D01*
X173241864Y-125527098D01*
X173089272Y-125558788D01*
X173027171Y-125562526D01*
X172952860Y-125555095D01*
X172856652Y-125535714D01*
X172753771Y-125508748D01*
X172659443Y-125478563D01*
X172588894Y-125449528D01*
X172558371Y-125428080D01*
X172555106Y-125380228D01*
X172575217Y-125294648D01*
G36*
X172131148Y-124471263D02*
G01*
X172163478Y-124321311D01*
X172175121Y-124286845D01*
X172252977Y-124138410D01*
X172368233Y-123995459D01*
X172505845Y-123873924D01*
X172640133Y-123794336D01*
X172748407Y-123758162D01*
X172876570Y-123733162D01*
X173008485Y-123720578D01*
X173128013Y-123721652D01*
X173219019Y-123737627D01*
X173242879Y-123747927D01*
X173307474Y-123784526D01*
X173141772Y-123952064D01*
X172984016Y-124132635D01*
X172826802Y-124350838D01*
X172679246Y-124591523D01*
X172550463Y-124839538D01*
X172449569Y-125079735D01*
X172430786Y-125133723D01*
X172402561Y-125205975D01*
X172376336Y-125252761D01*
X172366924Y-125261095D01*
X172339571Y-125244791D01*
X172297319Y-125192819D01*
X172248221Y-125117810D01*
X172200325Y-125032395D01*
X172161682Y-124949206D01*
X172152328Y-124924382D01*
X172124814Y-124794021D01*
X172118006Y-124635907D01*
X172131148Y-124471263D01*
X172131148Y-124471263D01*
G37*
X172131148Y-124471263D02*
X172163478Y-124321311D01*
X172175121Y-124286845D01*
X172252977Y-124138410D01*
X172368233Y-123995459D01*
X172505845Y-123873924D01*
X172640133Y-123794336D01*
X172748407Y-123758162D01*
X172876570Y-123733162D01*
X173008485Y-123720578D01*
X173128013Y-123721652D01*
X173219019Y-123737627D01*
X173242879Y-123747927D01*
X173307474Y-123784526D01*
X173141772Y-123952064D01*
X172984016Y-124132635D01*
X172826802Y-124350838D01*
X172679246Y-124591523D01*
X172550463Y-124839538D01*
X172449569Y-125079735D01*
X172430786Y-125133723D01*
X172402561Y-125205975D01*
X172376336Y-125252761D01*
X172366924Y-125261095D01*
X172339571Y-125244791D01*
X172297319Y-125192819D01*
X172248221Y-125117810D01*
X172200325Y-125032395D01*
X172161682Y-124949206D01*
X172152328Y-124924382D01*
X172124814Y-124794021D01*
X172118006Y-124635907D01*
X172131148Y-124471263D01*
D11*
X115356666Y-94555714D02*
X115356666Y-95031904D01*
X115642380Y-94460476D02*
X114642380Y-94793809D01*
X115642380Y-95127142D01*
X115642380Y-95984285D02*
X115642380Y-95412857D01*
X115642380Y-95698571D02*
X114642380Y-95698571D01*
X114785238Y-95603333D01*
X114880476Y-95508095D01*
X114928095Y-95412857D01*
X144295714Y-91298571D02*
X144152857Y-91346190D01*
X144105238Y-91393809D01*
X144057619Y-91489047D01*
X144057619Y-91631904D01*
X144105238Y-91727142D01*
X144152857Y-91774761D01*
X144248095Y-91822380D01*
X144629047Y-91822380D01*
X144629047Y-90822380D01*
X144295714Y-90822380D01*
X144200476Y-90870000D01*
X144152857Y-90917619D01*
X144105238Y-91012857D01*
X144105238Y-91108095D01*
X144152857Y-91203333D01*
X144200476Y-91250952D01*
X144295714Y-91298571D01*
X144629047Y-91298571D01*
X143771904Y-90822380D02*
X143200476Y-90822380D01*
X143486190Y-91822380D02*
X143486190Y-90822380D01*
X142343333Y-91822380D02*
X142914761Y-91822380D01*
X142629047Y-91822380D02*
X142629047Y-90822380D01*
X142724285Y-90965238D01*
X142819523Y-91060476D01*
X142914761Y-91108095D01*
M02*
